<?xml version="1.0" standalone="no"?>
 <!DOCTYPE svg PUBLIC "-//W3C//DTD SVG 1.1//EN" 
 "http://www.w3.org/Graphics/SVG/1.1/DTD/svg11.dtd"> 
<svg
  xmlns:svg="http://www.w3.org/2000/svg"
  xmlns="http://www.w3.org/2000/svg"
  xmlns:xlink="http://www.w3.org/1999/xlink"
  xmlns:inkscape="http://www.inkscape.org/namespaces/inkscape"
  version="1.1"
  width="148.0058mm" height="210.0072mm" viewBox="0.0000 0.0000 148.0058 210.0072">
<title>SVG Image created as rsdb_rev1-F_Silkscreen.svg date 2026-06-17T19:50:10 </title>
  <desc>Image generated by PCBNEW </desc>
<g style="fill:#000000; fill-opacity:1.0000;stroke:#000000; stroke-opacity:1.0000;
stroke-linecap:round; stroke-linejoin:round;"
 transform="translate(0 0) scale(1 1)">
</g>
<g style="fill:none; 
stroke:#000000; stroke-width:0.1500; stroke-opacity:1; 
stroke-linecap:round; stroke-linejoin:round;">
<text x="73.2790" y="101.5920"
textLength="2.2024" font-size="1.3333" lengthAdjust="spacingAndGlyphs"
text-anchor="middle" opacity="0" stroke-opacity="0">R2</text>
<g class="stroked-text"><desc>R2</desc>
<path d="M73.1123 101.5468
L72.7790 101.0706
" />
<path d="M72.5409 101.5468
L72.5409 100.5468
" />
<path d="M72.5409 100.5468
L72.9219 100.5468
" />
<path d="M72.9219 100.5468
L73.0171 100.5944
" />
<path d="M73.0171 100.5944
L73.0647 100.6421
" />
<path d="M73.0647 100.6421
L73.1123 100.7373
" />
<path d="M73.1123 100.7373
L73.1123 100.8802
" />
<path d="M73.1123 100.8802
L73.0647 100.9754
" />
<path d="M73.0647 100.9754
L73.0171 101.0230
" />
<path d="M73.0171 101.0230
L72.9219 101.0706
" />
<path d="M72.9219 101.0706
L72.5409 101.0706
" />
<path d="M73.4933 100.6421
L73.5409 100.5944
" />
<path d="M73.5409 100.5944
L73.6361 100.5468
" />
<path d="M73.6361 100.5468
L73.8742 100.5468
" />
<path d="M73.8742 100.5468
L73.9695 100.5944
" />
<path d="M73.9695 100.5944
L74.0171 100.6421
" />
<path d="M74.0171 100.6421
L74.0647 100.7373
" />
<path d="M74.0647 100.7373
L74.0647 100.8325
" />
<path d="M74.0647 100.8325
L74.0171 100.9754
" />
<path d="M74.0171 100.9754
L73.4457 101.5468
" />
<path d="M73.4457 101.5468
L74.0647 101.5468
" />
</g></g>
<g style="fill:none; 
stroke:#000000; stroke-width:0.2000; stroke-opacity:1; 
stroke-linecap:round; stroke-linejoin:round;">
<g transform="rotate(-180.000000 75.0000 75.1960)">
<text x="75.0000" y="76.1960"
textLength="14.3524" font-size="1.3333" lengthAdjust="spacingAndGlyphs"
text-anchor="middle" opacity="0" stroke-opacity="0">SDA SCK VCC GND</text>
</g>
<g class="stroked-text"><desc>SDA SCK VCC GND</desc>
<path d="M81.7857 74.2064
L81.6429 74.1588
" />
<path d="M81.6429 74.1588
L81.4048 74.1588
" />
<path d="M81.4048 74.1588
L81.3095 74.2064
" />
<path d="M81.3095 74.2064
L81.2619 74.2540
" />
<path d="M81.2619 74.2540
L81.2143 74.3493
" />
<path d="M81.2143 74.3493
L81.2143 74.4445
" />
<path d="M81.2143 74.4445
L81.2619 74.5397
" />
<path d="M81.2619 74.5397
L81.3095 74.5874
" />
<path d="M81.3095 74.5874
L81.4048 74.6350
" />
<path d="M81.4048 74.6350
L81.5952 74.6826
" />
<path d="M81.5952 74.6826
L81.6905 74.7302
" />
<path d="M81.6905 74.7302
L81.7381 74.7778
" />
<path d="M81.7381 74.7778
L81.7857 74.8731
" />
<path d="M81.7857 74.8731
L81.7857 74.9683
" />
<path d="M81.7857 74.9683
L81.7381 75.0635
" />
<path d="M81.7381 75.0635
L81.6905 75.1112
" />
<path d="M81.6905 75.1112
L81.5952 75.1588
" />
<path d="M81.5952 75.1588
L81.3571 75.1588
" />
<path d="M81.3571 75.1588
L81.2143 75.1112
" />
<path d="M80.7857 74.1588
L80.7857 75.1588
" />
<path d="M80.7857 75.1588
L80.5476 75.1588
" />
<path d="M80.5476 75.1588
L80.4048 75.1112
" />
<path d="M80.4048 75.1112
L80.3095 75.0159
" />
<path d="M80.3095 75.0159
L80.2619 74.9207
" />
<path d="M80.2619 74.9207
L80.2143 74.7302
" />
<path d="M80.2143 74.7302
L80.2143 74.5874
" />
<path d="M80.2143 74.5874
L80.2619 74.3969
" />
<path d="M80.2619 74.3969
L80.3095 74.3016
" />
<path d="M80.3095 74.3016
L80.4048 74.2064
" />
<path d="M80.4048 74.2064
L80.5476 74.1588
" />
<path d="M80.5476 74.1588
L80.7857 74.1588
" />
<path d="M79.8333 74.4445
L79.3571 74.4445
" />
<path d="M79.9286 74.1588
L79.5952 75.1588
" />
<path d="M79.5952 75.1588
L79.2619 74.1588
" />
<path d="M78.2143 74.2064
L78.0714 74.1588
" />
<path d="M78.0714 74.1588
L77.8333 74.1588
" />
<path d="M77.8333 74.1588
L77.7381 74.2064
" />
<path d="M77.7381 74.2064
L77.6905 74.2540
" />
<path d="M77.6905 74.2540
L77.6429 74.3493
" />
<path d="M77.6429 74.3493
L77.6429 74.4445
" />
<path d="M77.6429 74.4445
L77.6905 74.5397
" />
<path d="M77.6905 74.5397
L77.7381 74.5874
" />
<path d="M77.7381 74.5874
L77.8333 74.6350
" />
<path d="M77.8333 74.6350
L78.0238 74.6826
" />
<path d="M78.0238 74.6826
L78.1190 74.7302
" />
<path d="M78.1190 74.7302
L78.1667 74.7778
" />
<path d="M78.1667 74.7778
L78.2143 74.8731
" />
<path d="M78.2143 74.8731
L78.2143 74.9683
" />
<path d="M78.2143 74.9683
L78.1667 75.0635
" />
<path d="M78.1667 75.0635
L78.1190 75.1112
" />
<path d="M78.1190 75.1112
L78.0238 75.1588
" />
<path d="M78.0238 75.1588
L77.7857 75.1588
" />
<path d="M77.7857 75.1588
L77.6429 75.1112
" />
<path d="M76.6429 74.2540
L76.6905 74.2064
" />
<path d="M76.6905 74.2064
L76.8333 74.1588
" />
<path d="M76.8333 74.1588
L76.9286 74.1588
" />
<path d="M76.9286 74.1588
L77.0714 74.2064
" />
<path d="M77.0714 74.2064
L77.1667 74.3016
" />
<path d="M77.1667 74.3016
L77.2143 74.3969
" />
<path d="M77.2143 74.3969
L77.2619 74.5874
" />
<path d="M77.2619 74.5874
L77.2619 74.7302
" />
<path d="M77.2619 74.7302
L77.2143 74.9207
" />
<path d="M77.2143 74.9207
L77.1667 75.0159
" />
<path d="M77.1667 75.0159
L77.0714 75.1112
" />
<path d="M77.0714 75.1112
L76.9286 75.1588
" />
<path d="M76.9286 75.1588
L76.8333 75.1588
" />
<path d="M76.8333 75.1588
L76.6905 75.1112
" />
<path d="M76.6905 75.1112
L76.6429 75.0635
" />
<path d="M76.2143 74.1588
L76.2143 75.1588
" />
<path d="M75.6429 74.1588
L76.0714 74.7302
" />
<path d="M75.6429 75.1588
L76.2143 74.5874
" />
<path d="M74.5952 75.1588
L74.2619 74.1588
" />
<path d="M74.2619 74.1588
L73.9286 75.1588
" />
<path d="M73.0238 74.2540
L73.0714 74.2064
" />
<path d="M73.0714 74.2064
L73.2143 74.1588
" />
<path d="M73.2143 74.1588
L73.3095 74.1588
" />
<path d="M73.3095 74.1588
L73.4524 74.2064
" />
<path d="M73.4524 74.2064
L73.5476 74.3016
" />
<path d="M73.5476 74.3016
L73.5952 74.3969
" />
<path d="M73.5952 74.3969
L73.6429 74.5874
" />
<path d="M73.6429 74.5874
L73.6429 74.7302
" />
<path d="M73.6429 74.7302
L73.5952 74.9207
" />
<path d="M73.5952 74.9207
L73.5476 75.0159
" />
<path d="M73.5476 75.0159
L73.4524 75.1112
" />
<path d="M73.4524 75.1112
L73.3095 75.1588
" />
<path d="M73.3095 75.1588
L73.2143 75.1588
" />
<path d="M73.2143 75.1588
L73.0714 75.1112
" />
<path d="M73.0714 75.1112
L73.0238 75.0635
" />
<path d="M72.0238 74.2540
L72.0714 74.2064
" />
<path d="M72.0714 74.2064
L72.2143 74.1588
" />
<path d="M72.2143 74.1588
L72.3095 74.1588
" />
<path d="M72.3095 74.1588
L72.4524 74.2064
" />
<path d="M72.4524 74.2064
L72.5476 74.3016
" />
<path d="M72.5476 74.3016
L72.5952 74.3969
" />
<path d="M72.5952 74.3969
L72.6429 74.5874
" />
<path d="M72.6429 74.5874
L72.6429 74.7302
" />
<path d="M72.6429 74.7302
L72.5952 74.9207
" />
<path d="M72.5952 74.9207
L72.5476 75.0159
" />
<path d="M72.5476 75.0159
L72.4524 75.1112
" />
<path d="M72.4524 75.1112
L72.3095 75.1588
" />
<path d="M72.3095 75.1588
L72.2143 75.1588
" />
<path d="M72.2143 75.1588
L72.0714 75.1112
" />
<path d="M72.0714 75.1112
L72.0238 75.0635
" />
<path d="M70.3095 75.1112
L70.4048 75.1588
" />
<path d="M70.4048 75.1588
L70.5476 75.1588
" />
<path d="M70.5476 75.1588
L70.6905 75.1112
" />
<path d="M70.6905 75.1112
L70.7857 75.0159
" />
<path d="M70.7857 75.0159
L70.8333 74.9207
" />
<path d="M70.8333 74.9207
L70.8810 74.7302
" />
<path d="M70.8810 74.7302
L70.8810 74.5874
" />
<path d="M70.8810 74.5874
L70.8333 74.3969
" />
<path d="M70.8333 74.3969
L70.7857 74.3016
" />
<path d="M70.7857 74.3016
L70.6905 74.2064
" />
<path d="M70.6905 74.2064
L70.5476 74.1588
" />
<path d="M70.5476 74.1588
L70.4524 74.1588
" />
<path d="M70.4524 74.1588
L70.3095 74.2064
" />
<path d="M70.3095 74.2064
L70.2619 74.2540
" />
<path d="M70.2619 74.2540
L70.2619 74.5874
" />
<path d="M70.2619 74.5874
L70.4524 74.5874
" />
<path d="M69.8333 74.1588
L69.8333 75.1588
" />
<path d="M69.8333 75.1588
L69.2619 74.1588
" />
<path d="M69.2619 74.1588
L69.2619 75.1588
" />
<path d="M68.7857 74.1588
L68.7857 75.1588
" />
<path d="M68.7857 75.1588
L68.5476 75.1588
" />
<path d="M68.5476 75.1588
L68.4048 75.1112
" />
<path d="M68.4048 75.1112
L68.3095 75.0159
" />
<path d="M68.3095 75.0159
L68.2619 74.9207
" />
<path d="M68.2619 74.9207
L68.2143 74.7302
" />
<path d="M68.2143 74.7302
L68.2143 74.5874
" />
<path d="M68.2143 74.5874
L68.2619 74.3969
" />
<path d="M68.2619 74.3969
L68.3095 74.3016
" />
<path d="M68.3095 74.3016
L68.4048 74.2064
" />
<path d="M68.4048 74.2064
L68.5476 74.1588
" />
<path d="M68.5476 74.1588
L68.7857 74.1588
" />
</g></g>
<g style="fill:none; 
stroke:#000000; stroke-width:0.1500; stroke-opacity:1; 
stroke-linecap:round; stroke-linejoin:round;">
<g transform="rotate(-90.000000 61.4670 114.0580)">
<text x="61.4670" y="114.5580"
textLength="2.2024" font-size="1.3333" lengthAdjust="spacingAndGlyphs"
text-anchor="middle" opacity="0" stroke-opacity="0">D1</text>
</g>
<g class="stroked-text"><desc>D1</desc>
<path d="M61.9218 114.7961
L60.9218 114.7961
" />
<path d="M60.9218 114.7961
L60.9218 114.5580
" />
<path d="M60.9218 114.5580
L60.9694 114.4151
" />
<path d="M60.9694 114.4151
L61.0647 114.3199
" />
<path d="M61.0647 114.3199
L61.1599 114.2723
" />
<path d="M61.1599 114.2723
L61.3504 114.2247
" />
<path d="M61.3504 114.2247
L61.4932 114.2247
" />
<path d="M61.4932 114.2247
L61.6837 114.2723
" />
<path d="M61.6837 114.2723
L61.7790 114.3199
" />
<path d="M61.7790 114.3199
L61.8742 114.4151
" />
<path d="M61.8742 114.4151
L61.9218 114.5580
" />
<path d="M61.9218 114.5580
L61.9218 114.7961
" />
<path d="M61.9218 113.2723
L61.9218 113.8437
" />
<path d="M61.9218 113.5580
L60.9218 113.5580
" />
<path d="M60.9218 113.5580
L61.0647 113.6532
" />
<path d="M61.0647 113.6532
L61.1599 113.7485
" />
<path d="M61.1599 113.7485
L61.2075 113.8437
" />
</g><g transform="rotate(-90.000000 61.4670 111.0100)">
<text x="61.4670" y="111.5100"
textLength="2.2024" font-size="1.3333" lengthAdjust="spacingAndGlyphs"
text-anchor="middle" opacity="0" stroke-opacity="0">R3</text>
</g>
<g class="stroked-text"><desc>R3</desc>
<path d="M61.9218 111.1767
L61.4456 111.5100
" />
<path d="M61.9218 111.7481
L60.9218 111.7481
" />
<path d="M60.9218 111.7481
L60.9218 111.3671
" />
<path d="M60.9218 111.3671
L60.9694 111.2719
" />
<path d="M60.9694 111.2719
L61.0171 111.2243
" />
<path d="M61.0171 111.2243
L61.1123 111.1767
" />
<path d="M61.1123 111.1767
L61.2552 111.1767
" />
<path d="M61.2552 111.1767
L61.3504 111.2243
" />
<path d="M61.3504 111.2243
L61.3980 111.2719
" />
<path d="M61.3980 111.2719
L61.4456 111.3671
" />
<path d="M61.4456 111.3671
L61.4456 111.7481
" />
<path d="M60.9218 110.8433
L60.9218 110.2243
" />
<path d="M60.9218 110.2243
L61.3028 110.5576
" />
<path d="M61.3028 110.5576
L61.3028 110.4148
" />
<path d="M61.3028 110.4148
L61.3504 110.3195
" />
<path d="M61.3504 110.3195
L61.3980 110.2719
" />
<path d="M61.3980 110.2719
L61.4932 110.2243
" />
<path d="M61.4932 110.2243
L61.7313 110.2243
" />
<path d="M61.7313 110.2243
L61.8266 110.2719
" />
<path d="M61.8266 110.2719
L61.8742 110.3195
" />
<path d="M61.8742 110.3195
L61.9218 110.4148
" />
<path d="M61.9218 110.4148
L61.9218 110.7005
" />
<path d="M61.9218 110.7005
L61.8742 110.7957
" />
<path d="M61.8742 110.7957
L61.8266 110.8433
" />
</g><text x="64.8960" y="119.1300"
textLength="2.2024" font-size="1.3333" lengthAdjust="spacingAndGlyphs"
text-anchor="middle" opacity="0" stroke-opacity="0">C1</text>
<g class="stroked-text"><desc>C1</desc>
<path d="M64.7293 118.9896
L64.6817 119.0372
" />
<path d="M64.6817 119.0372
L64.5389 119.0848
" />
<path d="M64.5389 119.0848
L64.4436 119.0848
" />
<path d="M64.4436 119.0848
L64.3008 119.0372
" />
<path d="M64.3008 119.0372
L64.2055 118.9420
" />
<path d="M64.2055 118.9420
L64.1579 118.8467
" />
<path d="M64.1579 118.8467
L64.1103 118.6562
" />
<path d="M64.1103 118.6562
L64.1103 118.5134
" />
<path d="M64.1103 118.5134
L64.1579 118.3229
" />
<path d="M64.1579 118.3229
L64.2055 118.2277
" />
<path d="M64.2055 118.2277
L64.3008 118.1324
" />
<path d="M64.3008 118.1324
L64.4436 118.0848
" />
<path d="M64.4436 118.0848
L64.5389 118.0848
" />
<path d="M64.5389 118.0848
L64.6817 118.1324
" />
<path d="M64.6817 118.1324
L64.7293 118.1801
" />
<path d="M65.6817 119.0848
L65.1103 119.0848
" />
<path d="M65.3960 119.0848
L65.3960 118.0848
" />
<path d="M65.3960 118.0848
L65.3008 118.2277
" />
<path d="M65.3008 118.2277
L65.2055 118.3229
" />
<path d="M65.2055 118.3229
L65.1103 118.3705
" />
</g><text x="64.8960" y="111.6370"
textLength="2.2500" font-size="1.3333" lengthAdjust="spacingAndGlyphs"
text-anchor="middle" opacity="0" stroke-opacity="0">U1</text>
<g class="stroked-text"><desc>U1</desc>
<path d="M64.1341 110.5918
L64.1341 111.4013
" />
<path d="M64.1341 111.4013
L64.1817 111.4966
" />
<path d="M64.1817 111.4966
L64.2293 111.5442
" />
<path d="M64.2293 111.5442
L64.3246 111.5918
" />
<path d="M64.3246 111.5918
L64.5150 111.5918
" />
<path d="M64.5150 111.5918
L64.6103 111.5442
" />
<path d="M64.6103 111.5442
L64.6579 111.4966
" />
<path d="M64.6579 111.4966
L64.7055 111.4013
" />
<path d="M64.7055 111.4013
L64.7055 110.5918
" />
<path d="M65.7055 111.5918
L65.1341 111.5918
" />
<path d="M65.4198 111.5918
L65.4198 110.5918
" />
<path d="M65.4198 110.5918
L65.3246 110.7347
" />
<path d="M65.3246 110.7347
L65.2293 110.8299
" />
<path d="M65.2293 110.8299
L65.1341 110.8775
" />
</g><text x="77.8510" y="101.5920"
textLength="2.2024" font-size="1.3333" lengthAdjust="spacingAndGlyphs"
text-anchor="middle" opacity="0" stroke-opacity="0">R1</text>
<g class="stroked-text"><desc>R1</desc>
<path d="M77.6843 101.5468
L77.3510 101.0706
" />
<path d="M77.1129 101.5468
L77.1129 100.5468
" />
<path d="M77.1129 100.5468
L77.4939 100.5468
" />
<path d="M77.4939 100.5468
L77.5891 100.5944
" />
<path d="M77.5891 100.5944
L77.6367 100.6421
" />
<path d="M77.6367 100.6421
L77.6843 100.7373
" />
<path d="M77.6843 100.7373
L77.6843 100.8802
" />
<path d="M77.6843 100.8802
L77.6367 100.9754
" />
<path d="M77.6367 100.9754
L77.5891 101.0230
" />
<path d="M77.5891 101.0230
L77.4939 101.0706
" />
<path d="M77.4939 101.0706
L77.1129 101.0706
" />
<path d="M78.6367 101.5468
L78.0653 101.5468
" />
<path d="M78.3510 101.5468
L78.3510 100.5468
" />
<path d="M78.3510 100.5468
L78.2558 100.6897
" />
<path d="M78.2558 100.6897
L78.1605 100.7849
" />
<path d="M78.1605 100.7849
L78.0653 100.8325
" />
</g><g transform="rotate(-90.000000 68.4520 111.0100)">
<text x="68.4520" y="111.5100"
textLength="2.2024" font-size="1.3333" lengthAdjust="spacingAndGlyphs"
text-anchor="middle" opacity="0" stroke-opacity="0">R4</text>
</g>
<g class="stroked-text"><desc>R4</desc>
<path d="M68.9068 111.1767
L68.4306 111.5100
" />
<path d="M68.9068 111.7481
L67.9068 111.7481
" />
<path d="M67.9068 111.7481
L67.9068 111.3671
" />
<path d="M67.9068 111.3671
L67.9544 111.2719
" />
<path d="M67.9544 111.2719
L68.0021 111.2243
" />
<path d="M68.0021 111.2243
L68.0973 111.1767
" />
<path d="M68.0973 111.1767
L68.2402 111.1767
" />
<path d="M68.2402 111.1767
L68.3354 111.2243
" />
<path d="M68.3354 111.2243
L68.3830 111.2719
" />
<path d="M68.3830 111.2719
L68.4306 111.3671
" />
<path d="M68.4306 111.3671
L68.4306 111.7481
" />
<path d="M68.2402 110.3195
L68.9068 110.3195
" />
<path d="M67.8592 110.5576
L68.5735 110.7957
" />
<path d="M68.5735 110.7957
L68.5735 110.1767
" />
</g><g transform="rotate(-90.000000 68.4520 114.0580)">
<text x="68.4520" y="114.5580"
textLength="2.2024" font-size="1.3333" lengthAdjust="spacingAndGlyphs"
text-anchor="middle" opacity="0" stroke-opacity="0">D2</text>
</g>
<g class="stroked-text"><desc>D2</desc>
<path d="M68.9068 114.7961
L67.9068 114.7961
" />
<path d="M67.9068 114.7961
L67.9068 114.5580
" />
<path d="M67.9068 114.5580
L67.9544 114.4151
" />
<path d="M67.9544 114.4151
L68.0497 114.3199
" />
<path d="M68.0497 114.3199
L68.1449 114.2723
" />
<path d="M68.1449 114.2723
L68.3354 114.2247
" />
<path d="M68.3354 114.2247
L68.4782 114.2247
" />
<path d="M68.4782 114.2247
L68.6687 114.2723
" />
<path d="M68.6687 114.2723
L68.7640 114.3199
" />
<path d="M68.7640 114.3199
L68.8592 114.4151
" />
<path d="M68.8592 114.4151
L68.9068 114.5580
" />
<path d="M68.9068 114.5580
L68.9068 114.7961
" />
<path d="M68.0021 113.8437
L67.9544 113.7961
" />
<path d="M67.9544 113.7961
L67.9068 113.7009
" />
<path d="M67.9068 113.7009
L67.9068 113.4628
" />
<path d="M67.9068 113.4628
L67.9544 113.3675
" />
<path d="M67.9544 113.3675
L68.0021 113.3199
" />
<path d="M68.0021 113.3199
L68.0973 113.2723
" />
<path d="M68.0973 113.2723
L68.1925 113.2723
" />
<path d="M68.1925 113.2723
L68.3354 113.3199
" />
<path d="M68.3354 113.3199
L68.9068 113.8913
" />
<path d="M68.9068 113.8913
L68.9068 113.2723
" />
</g></g>
<g style="fill:none; 
stroke:#000000; stroke-width:0.1200; stroke-opacity:1; 
stroke-linecap:round; stroke-linejoin:round;">
<path d="M73.5337 103.0115
L73.0243 103.0115
" />
<path d="M73.5337 101.9665
L73.0243 101.9665
" />
<path d="M62.2640 114.7580
L62.2640 112.7980
" />
<path d="M63.4640 112.7980
L62.2640 112.7980
" />
<path d="M63.4640 114.7580
L63.4640 112.7980
" />
<path d="M62.3415 111.2647
L62.3415 110.7553
" />
<path d="M63.3865 111.2647
L63.3865 110.7553
" />
<path d="M64.7497 116.5960
L65.0423 116.5960
" />
<path d="M64.7497 117.6160
L65.0423 117.6160
" />
<path d="M63.7560 111.9080
L66.0460 111.9080
" />
<path d="M63.7560 115.8880
L63.7560 111.9080
" />
<path d="M66.0460 111.9080
L66.0460 116.1880
" />
<path d="M66.0460 116.1880
L64.0560 116.1880
" />
<path style="fill:none; 
stroke:#000000; stroke-width:0.1200; stroke-opacity:1; 
stroke-linecap:round; stroke-linejoin:round;fill:none"
d="M 63.7560,116.1880
63.7560,116.4680
63.4760,116.1880
Z" /> 
<path style="fill:#000000; fill-opacity:1.0000; stroke:none;fill-rule:evenodd;"
d="M 63.7560,116.4680
63.4760,116.1880
63.7560,116.1880
Z" /> 
</g>
<g style="fill:none; 
stroke:#000000; stroke-width:0.1200; stroke-opacity:1; 
stroke-linecap:round; stroke-linejoin:round;">
<path d="M77.5963 103.0115
L78.1057 103.0115
" />
<path d="M77.5963 101.9665
L78.1057 101.9665
" />
<path d="M66.4055 111.2647
L66.4055 110.7553
" />
<path d="M67.4505 111.2647
L67.4505 110.7553
" />
<path d="M66.3280 114.7580
L66.3280 112.7980
" />
<path d="M67.5280 112.7980
L66.3280 112.7980
" />
<path d="M67.5280 114.7580
L67.5280 112.7980
" />
</g> 
</svg>
