<?xml version="1.0" standalone="no"?>
 <!DOCTYPE svg PUBLIC "-//W3C//DTD SVG 1.1//EN" 
 "http://www.w3.org/Graphics/SVG/1.1/DTD/svg11.dtd"> 
<svg
  xmlns:svg="http://www.w3.org/2000/svg"
  xmlns="http://www.w3.org/2000/svg"
  xmlns:xlink="http://www.w3.org/1999/xlink"
  xmlns:inkscape="http://www.inkscape.org/namespaces/inkscape"
  version="1.1"
  width="148.0058mm" height="210.0072mm" viewBox="0.0000 0.0000 148.0058 210.0072">
<title>SVG Image created as rsdb_rev1-User_Drawings.svg date 2026-06-17T19:46:56 </title>
  <desc>Image generated by PCBNEW </desc>
<g style="fill:#000000; fill-opacity:1.0000;stroke:#000000; stroke-opacity:1.0000;
stroke-linecap:round; stroke-linejoin:round;"
 transform="translate(0 0) scale(1 1)">
</g>
<g style="fill:none; 
stroke:#000000; stroke-width:0.1000; stroke-opacity:1; 
stroke-linecap:round; stroke-linejoin:round;">
<path d="M62.5000 75.5000
L62.5000 102.5000
" />
<path d="M62.5000 102.5000
L68.0000 102.5000
" />
<path d="M68.0000 100.0000
L68.0000 102.5000
" />
<path d="M75.5000 88.5000
L74.5000 89.5000
" />
<path d="M75.5000 89.5000
L74.5000 88.5000
" />
<path d="M82.0000 100.0000
L68.0000 100.0000
" />
<path d="M82.0000 102.5000
L82.0000 100.0000
" />
<path d="M82.0000 102.5000
L87.5000 102.5000
" />
<path d="M87.5000 75.5000
L62.5000 75.5000
" />
<path d="M87.5000 102.5000
L87.5000 75.5000
" />
<path style="fill:none; 
stroke:#000000; stroke-width:0.1200; stroke-opacity:1; 
stroke-linecap:round; stroke-linejoin:round;fill:none"
d="M 68.8740,105.1100
89.8740,105.1100
89.8740,122.8900
68.8740,122.8900
Z" /> 
<path style="fill:none; 
stroke:#000000; stroke-width:0.1200; stroke-opacity:1; 
stroke-linecap:round; stroke-linejoin:round;fill:none"
d="M 83.9440,109.5000
91.2740,109.5000
91.2740,118.5000
83.9440,118.5000
Z" /> 
</g> 
</svg>
