<?xml version="1.0" standalone="no"?>
 <!DOCTYPE svg PUBLIC "-//W3C//DTD SVG 1.1//EN" 
 "http://www.w3.org/Graphics/SVG/1.1/DTD/svg11.dtd"> 
<svg
  xmlns:svg="http://www.w3.org/2000/svg"
  xmlns="http://www.w3.org/2000/svg"
  xmlns:xlink="http://www.w3.org/1999/xlink"
  xmlns:inkscape="http://www.inkscape.org/namespaces/inkscape"
  version="1.1"
  width="148.0058mm" height="210.0072mm" viewBox="0.0000 0.0000 148.0058 210.0072">
<title>SVG Image created as rsdb_rev1-F_Cu.svg date 2026-06-17T19:50:10 </title>
  <desc>Image generated by PCBNEW </desc>
<g style="fill:#000000; fill-opacity:1.0000;stroke:#000000; stroke-opacity:1.0000;
stroke-linecap:round; stroke-linejoin:round;"
 transform="translate(0 0) scale(1 1)">
<path style="fill:#000000; fill-opacity:1.0000; stroke:none;fill-rule:evenodd;"
d="M 74.6790,102.7265
74.6609,102.8174
74.6094,102.8944
74.5324,102.9459
74.4415,102.9640
73.9415,102.9640
73.8506,102.9459
73.7736,102.8944
73.7221,102.8174
73.7040,102.7265
73.7040,102.2515
73.7221,102.1606
73.7736,102.0836
73.8506,102.0321
73.9415,102.0140
74.4415,102.0140
74.5324,102.0321
74.6094,102.0836
74.6609,102.1606
74.6790,102.2515
Z" /> 
<path style="fill:#000000; fill-opacity:1.0000; stroke:none;fill-rule:evenodd;"
d="M 72.8540,102.7265
72.8359,102.8174
72.7844,102.8944
72.7074,102.9459
72.6165,102.9640
72.1165,102.9640
72.0256,102.9459
71.9486,102.8944
71.8971,102.8174
71.8790,102.7265
71.8790,102.2515
71.8971,102.1606
71.9486,102.0836
72.0256,102.0321
72.1165,102.0140
72.6165,102.0140
72.7074,102.0321
72.7844,102.0836
72.8359,102.1606
72.8540,102.2515
Z" /> 
<path style="fill:#000000; fill-opacity:1.0000; stroke:none;fill-rule:evenodd;"
d="M 70.4360,77.7540
70.4360,76.2460
71.9440,76.2460
71.9440,77.7540
Z" /> 
</g>
<g style="fill:#000000; fill-opacity:1.0000; stroke:none;">
<circle cx="73.7300" cy="77.0000" r="0.7540" /> 
<circle cx="76.2700" cy="77.0000" r="0.7540" /> 
<circle cx="78.8100" cy="77.0000" r="0.7540" /> 
<path style="fill:#000000; fill-opacity:1.0000; stroke:none;fill-rule:evenodd;"
d="M 62.6640,113.6580
62.6066,113.6466
62.5579,113.6141
62.5254,113.5654
62.5140,113.5080
62.5140,113.2080
62.5254,113.1506
62.5579,113.1019
62.6066,113.0694
62.6640,113.0580
63.0640,113.0580
63.1214,113.0694
63.1701,113.1019
63.2026,113.1506
63.2140,113.2080
63.2140,113.5080
63.2026,113.5654
63.1701,113.6141
63.1214,113.6466
63.0640,113.6580
Z" /> 
<path style="fill:#000000; fill-opacity:1.0000; stroke:none;fill-rule:evenodd;"
d="M 62.6640,115.0580
62.6066,115.0466
62.5579,115.0141
62.5254,114.9654
62.5140,114.9080
62.5140,114.6080
62.5254,114.5506
62.5579,114.5019
62.6066,114.4694
62.6640,114.4580
63.0640,114.4580
63.1214,114.4694
63.1701,114.5019
63.2026,114.5506
63.2140,114.6080
63.2140,114.9080
63.2026,114.9654
63.1701,115.0141
63.1214,115.0466
63.0640,115.0580
Z" /> 
<path style="fill:#000000; fill-opacity:1.0000; stroke:none;fill-rule:evenodd;"
d="M 62.6265,112.4100
62.5356,112.3919
62.4586,112.3404
62.4071,112.2634
62.3890,112.1725
62.3890,111.6725
62.4071,111.5816
62.4586,111.5046
62.5356,111.4531
62.6265,111.4350
63.1015,111.4350
63.1924,111.4531
63.2694,111.5046
63.3209,111.5816
63.3390,111.6725
63.3390,112.1725
63.3209,112.2634
63.2694,112.3404
63.1924,112.3919
63.1015,112.4100
Z" /> 
<path style="fill:#000000; fill-opacity:1.0000; stroke:none;fill-rule:evenodd;"
d="M 62.6265,110.5850
62.5356,110.5669
62.4586,110.5154
62.4071,110.4384
62.3890,110.3475
62.3890,109.8475
62.4071,109.7566
62.4586,109.6796
62.5356,109.6281
62.6265,109.6100
63.1015,109.6100
63.1924,109.6281
63.2694,109.6796
63.3209,109.7566
63.3390,109.8475
63.3390,110.3475
63.3209,110.4384
63.2694,110.5154
63.1924,110.5669
63.1015,110.5850
Z" /> 
<path style="fill:#000000; fill-opacity:1.0000; stroke:none;fill-rule:evenodd;"
d="M 63.4960,116.8685
63.5141,116.7776
63.5656,116.7006
63.6426,116.6491
63.7335,116.6310
64.3335,116.6310
64.4244,116.6491
64.5014,116.7006
64.5529,116.7776
64.5710,116.8685
64.5710,117.3435
64.5529,117.4344
64.5014,117.5114
64.4244,117.5629
64.3335,117.5810
63.7335,117.5810
63.6426,117.5629
63.5656,117.5114
63.5141,117.4344
63.4960,117.3435
Z" /> 
<path style="fill:#000000; fill-opacity:1.0000; stroke:none;fill-rule:evenodd;"
d="M 65.2210,116.8685
65.2391,116.7776
65.2906,116.7006
65.3676,116.6491
65.4585,116.6310
66.0585,116.6310
66.1494,116.6491
66.2264,116.7006
66.2779,116.7776
66.2960,116.8685
66.2960,117.3435
66.2779,117.4344
66.2264,117.5114
66.1494,117.5629
66.0585,117.5810
65.4585,117.5810
65.3676,117.5629
65.2906,117.5114
65.2391,117.4344
65.2210,117.3435
Z" /> 
<path style="fill:#000000; fill-opacity:1.0000; stroke:none;fill-rule:evenodd;"
d="M 64.0260,114.7535
64.0325,114.7208
64.0510,114.6930
64.0788,114.6745
64.1115,114.6680
64.5105,114.6680
64.5432,114.6745
64.5710,114.6930
64.5895,114.7208
64.5960,114.7535
64.5960,115.2225
64.5895,115.2552
64.5710,115.2830
64.5432,115.3015
64.5105,115.3080
64.1115,115.3080
64.0788,115.3015
64.0510,115.2830
64.0325,115.2552
64.0260,115.2225
Z" /> 
<path style="fill:#000000; fill-opacity:1.0000; stroke:none;fill-rule:evenodd;"
d="M 64.0260,113.8135
64.0325,113.7808
64.0510,113.7530
64.0788,113.7345
64.1115,113.7280
64.5105,113.7280
64.5432,113.7345
64.5710,113.7530
64.5895,113.7808
64.5960,113.8135
64.5960,114.2825
64.5895,114.3152
64.5710,114.3430
64.5432,114.3615
64.5105,114.3680
64.1115,114.3680
64.0788,114.3615
64.0510,114.3430
64.0325,114.3152
64.0260,114.2825
Z" /> 
<path style="fill:#000000; fill-opacity:1.0000; stroke:none;fill-rule:evenodd;"
d="M 64.0260,112.8735
64.0325,112.8408
64.0510,112.8130
64.0788,112.7945
64.1115,112.7880
64.5105,112.7880
64.5432,112.7945
64.5710,112.8130
64.5895,112.8408
64.5960,112.8735
64.5960,113.3425
64.5895,113.3752
64.5710,113.4030
64.5432,113.4215
64.5105,113.4280
64.1115,113.4280
64.0788,113.4215
64.0510,113.4030
64.0325,113.3752
64.0260,113.3425
Z" /> 
<path style="fill:#000000; fill-opacity:1.0000; stroke:none;fill-rule:evenodd;"
d="M 65.1960,112.8735
65.2025,112.8408
65.2210,112.8130
65.2488,112.7945
65.2815,112.7880
65.6805,112.7880
65.7132,112.7945
65.7410,112.8130
65.7595,112.8408
65.7660,112.8735
65.7660,113.3425
65.7595,113.3752
65.7410,113.4030
65.7132,113.4215
65.6805,113.4280
65.2815,113.4280
65.2488,113.4215
65.2210,113.4030
65.2025,113.3752
65.1960,113.3425
Z" /> 
<path style="fill:#000000; fill-opacity:1.0000; stroke:none;fill-rule:evenodd;"
d="M 65.7660,114.2825
65.7595,114.3152
65.7410,114.3430
65.7132,114.3615
65.6805,114.3680
65.2815,114.3680
65.2488,114.3615
65.2210,114.3430
65.2025,114.3152
65.1960,114.2825
65.1960,113.8135
65.2025,113.7808
65.2210,113.7530
65.2488,113.7345
65.2815,113.7280
65.6805,113.7280
65.7132,113.7345
65.7410,113.7530
65.7595,113.7808
65.7660,113.8135
Z" /> 
<path style="fill:#000000; fill-opacity:1.0000; stroke:none;fill-rule:evenodd;"
d="M 65.1960,114.7535
65.2025,114.7208
65.2210,114.6930
65.2488,114.6745
65.2815,114.6680
65.6805,114.6680
65.7132,114.6745
65.7410,114.6930
65.7595,114.7208
65.7660,114.7535
65.7660,115.2225
65.7595,115.2552
65.7410,115.2830
65.7132,115.3015
65.6805,115.3080
65.2815,115.3080
65.2488,115.3015
65.2210,115.2830
65.2025,115.2552
65.1960,115.2225
Z" /> 
<path style="fill:#000000; fill-opacity:1.0000; stroke:none;fill-rule:evenodd;"
d="M 76.4510,102.2515
76.4691,102.1606
76.5206,102.0836
76.5976,102.0321
76.6885,102.0140
77.1885,102.0140
77.2794,102.0321
77.3564,102.0836
77.4079,102.1606
77.4260,102.2515
77.4260,102.7265
77.4079,102.8174
77.3564,102.8944
77.2794,102.9459
77.1885,102.9640
76.6885,102.9640
76.5976,102.9459
76.5206,102.8944
76.4691,102.8174
76.4510,102.7265
Z" /> 
<path style="fill:#000000; fill-opacity:1.0000; stroke:none;fill-rule:evenodd;"
d="M 78.2760,102.2515
78.2941,102.1606
78.3456,102.0836
78.4226,102.0321
78.5135,102.0140
79.0135,102.0140
79.1044,102.0321
79.1814,102.0836
79.2329,102.1606
79.2510,102.2515
79.2510,102.7265
79.2329,102.8174
79.1814,102.8944
79.1044,102.9459
79.0135,102.9640
78.5135,102.9640
78.4226,102.9459
78.3456,102.8944
78.2941,102.8174
78.2760,102.7265
Z" /> 
<path style="fill:#000000; fill-opacity:1.0000; stroke:none;fill-rule:evenodd;"
d="M 66.6905,112.4100
66.5996,112.3919
66.5226,112.3404
66.4711,112.2634
66.4530,112.1725
66.4530,111.6725
66.4711,111.5816
66.5226,111.5046
66.5996,111.4531
66.6905,111.4350
67.1655,111.4350
67.2564,111.4531
67.3334,111.5046
67.3849,111.5816
67.4030,111.6725
67.4030,112.1725
67.3849,112.2634
67.3334,112.3404
67.2564,112.3919
67.1655,112.4100
Z" /> 
<path style="fill:#000000; fill-opacity:1.0000; stroke:none;fill-rule:evenodd;"
d="M 66.6905,110.5850
66.5996,110.5669
66.5226,110.5154
66.4711,110.4384
66.4530,110.3475
66.4530,109.8475
66.4711,109.7566
66.5226,109.6796
66.5996,109.6281
66.6905,109.6100
67.1655,109.6100
67.2564,109.6281
67.3334,109.6796
67.3849,109.7566
67.4030,109.8475
67.4030,110.3475
67.3849,110.4384
67.3334,110.5154
67.2564,110.5669
67.1655,110.5850
Z" /> 
<path style="fill:#000000; fill-opacity:1.0000; stroke:none;fill-rule:evenodd;"
d="M 87.4940,104.5600
87.6003,104.5714
87.7336,104.6212
87.8476,104.7064
87.9328,104.8204
87.9826,104.9537
87.9940,105.0600
87.9940,106.8100
87.9826,106.9163
87.9328,107.0496
87.8476,107.1636
87.7336,107.2488
87.6003,107.2986
87.4940,107.3100
86.4940,107.3100
86.3877,107.2986
86.2544,107.2488
86.1404,107.1636
86.0552,107.0496
86.0054,106.9163
85.9940,106.8100
85.9940,105.0600
86.0054,104.9537
86.0552,104.8204
86.1404,104.7064
86.2544,104.6212
86.3877,104.5714
86.4940,104.5600
Z" /> 
<path style="fill:#000000; fill-opacity:1.0000; stroke:none;fill-rule:evenodd;"
d="M 86.1940,107.1800
86.1940,105.5800
87.7940,105.5800
87.7940,107.1800
Z" /> 
<path style="fill:#000000; fill-opacity:1.0000; stroke:none;fill-rule:evenodd;"
d="M 84.9540,104.5600
85.0603,104.5714
85.1936,104.6212
85.3076,104.7064
85.3928,104.8204
85.4426,104.9537
85.4540,105.0600
85.4540,106.8100
85.4426,106.9163
85.3928,107.0496
85.3076,107.1636
85.1936,107.2488
85.0603,107.2986
84.9540,107.3100
83.9540,107.3100
83.8477,107.2986
83.7144,107.2488
83.6004,107.1636
83.5152,107.0496
83.4654,106.9163
83.4540,106.8100
83.4540,105.0600
83.4654,104.9537
83.5152,104.8204
83.6004,104.7064
83.7144,104.6212
83.8477,104.5714
83.9540,104.5600
Z" /> 
<circle cx="84.4540" cy="106.3800" r="0.8000" /> 
<path style="fill:#000000; fill-opacity:1.0000; stroke:none;fill-rule:evenodd;"
d="M 82.4140,104.5600
82.5203,104.5714
82.6536,104.6212
82.7676,104.7064
82.8528,104.8204
82.9026,104.9537
82.9140,105.0600
82.9140,106.8100
82.9026,106.9163
82.8528,107.0496
82.7676,107.1636
82.6536,107.2488
82.5203,107.2986
82.4140,107.3100
81.4140,107.3100
81.3077,107.2986
81.1744,107.2488
81.0604,107.1636
80.9752,107.0496
80.9254,106.9163
80.9140,106.8100
80.9140,105.0600
80.9254,104.9537
80.9752,104.8204
81.0604,104.7064
81.1744,104.6212
81.3077,104.5714
81.4140,104.5600
Z" /> 
<circle cx="81.9140" cy="106.3800" r="0.8000" /> 
<path style="fill:#000000; fill-opacity:1.0000; stroke:none;fill-rule:evenodd;"
d="M 79.8740,104.5600
79.9803,104.5714
80.1136,104.6212
80.2276,104.7064
80.3128,104.8204
80.3626,104.9537
80.3740,105.0600
80.3740,106.8100
80.3626,106.9163
80.3128,107.0496
80.2276,107.1636
80.1136,107.2488
79.9803,107.2986
79.8740,107.3100
78.8740,107.3100
78.7677,107.2986
78.6344,107.2488
78.5204,107.1636
78.4352,107.0496
78.3854,106.9163
78.3740,106.8100
78.3740,105.0600
78.3854,104.9537
78.4352,104.8204
78.5204,104.7064
78.6344,104.6212
78.7677,104.5714
78.8740,104.5600
Z" /> 
<circle cx="79.3740" cy="106.3800" r="0.8000" /> 
<path style="fill:#000000; fill-opacity:1.0000; stroke:none;fill-rule:evenodd;"
d="M 77.3340,104.5600
77.4403,104.5714
77.5736,104.6212
77.6876,104.7064
77.7728,104.8204
77.8226,104.9537
77.8340,105.0600
77.8340,106.8100
77.8226,106.9163
77.7728,107.0496
77.6876,107.1636
77.5736,107.2488
77.4403,107.2986
77.3340,107.3100
76.3340,107.3100
76.2277,107.2986
76.0944,107.2488
75.9804,107.1636
75.8952,107.0496
75.8454,106.9163
75.8340,106.8100
75.8340,105.0600
75.8454,104.9537
75.8952,104.8204
75.9804,104.7064
76.0944,104.6212
76.2277,104.5714
76.3340,104.5600
Z" /> 
<circle cx="76.8340" cy="106.3800" r="0.8000" /> 
<path style="fill:#000000; fill-opacity:1.0000; stroke:none;fill-rule:evenodd;"
d="M 74.7940,104.5600
74.9003,104.5714
75.0336,104.6212
75.1476,104.7064
75.2328,104.8204
75.2826,104.9537
75.2940,105.0600
75.2940,106.8100
75.2826,106.9163
75.2328,107.0496
75.1476,107.1636
75.0336,107.2488
74.9003,107.2986
74.7940,107.3100
73.7940,107.3100
73.6877,107.2986
73.5544,107.2488
73.4404,107.1636
73.3552,107.0496
73.3054,106.9163
73.2940,106.8100
73.2940,105.0600
73.3054,104.9537
73.3552,104.8204
73.4404,104.7064
73.5544,104.6212
73.6877,104.5714
73.7940,104.5600
Z" /> 
<circle cx="74.2940" cy="106.3800" r="0.8000" /> 
<path style="fill:#000000; fill-opacity:1.0000; stroke:none;fill-rule:evenodd;"
d="M 72.2540,104.5600
72.3603,104.5714
72.4936,104.6212
72.6076,104.7064
72.6928,104.8204
72.7426,104.9537
72.7540,105.0600
72.7540,106.8100
72.7426,106.9163
72.6928,107.0496
72.6076,107.1636
72.4936,107.2488
72.3603,107.2986
72.2540,107.3100
71.2540,107.3100
71.1477,107.2986
71.0144,107.2488
70.9004,107.1636
70.8152,107.0496
70.7654,106.9163
70.7540,106.8100
70.7540,105.0600
70.7654,104.9537
70.8152,104.8204
70.9004,104.7064
71.0144,104.6212
71.1477,104.5714
71.2540,104.5600
Z" /> 
<circle cx="71.7540" cy="106.3800" r="0.8000" /> 
<circle cx="71.7540" cy="121.6200" r="0.8000" /> 
<path style="fill:#000000; fill-opacity:1.0000; stroke:none;fill-rule:evenodd;"
d="M 72.2540,120.7250
72.3603,120.7364
72.4936,120.7862
72.6076,120.8714
72.6928,120.9854
72.7426,121.1187
72.7540,121.2250
72.7540,122.9750
72.7426,123.0813
72.6928,123.2146
72.6076,123.3286
72.4936,123.4138
72.3603,123.4636
72.2540,123.4750
71.2540,123.4750
71.1477,123.4636
71.0144,123.4138
70.9004,123.3286
70.8152,123.2146
70.7654,123.0813
70.7540,122.9750
70.7540,121.2250
70.7654,121.1187
70.8152,120.9854
70.9004,120.8714
71.0144,120.7862
71.1477,120.7364
71.2540,120.7250
Z" /> 
<circle cx="74.2940" cy="121.6200" r="0.8000" /> 
<path style="fill:#000000; fill-opacity:1.0000; stroke:none;fill-rule:evenodd;"
d="M 74.7940,120.7250
74.9003,120.7364
75.0336,120.7862
75.1476,120.8714
75.2328,120.9854
75.2826,121.1187
75.2940,121.2250
75.2940,122.9750
75.2826,123.0813
75.2328,123.2146
75.1476,123.3286
75.0336,123.4138
74.9003,123.4636
74.7940,123.4750
73.7940,123.4750
73.6877,123.4636
73.5544,123.4138
73.4404,123.3286
73.3552,123.2146
73.3054,123.0813
73.2940,122.9750
73.2940,121.2250
73.3054,121.1187
73.3552,120.9854
73.4404,120.8714
73.5544,120.7862
73.6877,120.7364
73.7940,120.7250
Z" /> 
<circle cx="76.8340" cy="121.6200" r="0.8000" /> 
<path style="fill:#000000; fill-opacity:1.0000; stroke:none;fill-rule:evenodd;"
d="M 77.3340,120.7250
77.4403,120.7364
77.5736,120.7862
77.6876,120.8714
77.7728,120.9854
77.8226,121.1187
77.8340,121.2250
77.8340,122.9750
77.8226,123.0813
77.7728,123.2146
77.6876,123.3286
77.5736,123.4138
77.4403,123.4636
77.3340,123.4750
76.3340,123.4750
76.2277,123.4636
76.0944,123.4138
75.9804,123.3286
75.8952,123.2146
75.8454,123.0813
75.8340,122.9750
75.8340,121.2250
75.8454,121.1187
75.8952,120.9854
75.9804,120.8714
76.0944,120.7862
76.2277,120.7364
76.3340,120.7250
Z" /> 
<circle cx="79.3740" cy="121.6200" r="0.8000" /> 
<path style="fill:#000000; fill-opacity:1.0000; stroke:none;fill-rule:evenodd;"
d="M 79.8740,120.7250
79.9803,120.7364
80.1136,120.7862
80.2276,120.8714
80.3128,120.9854
80.3626,121.1187
80.3740,121.2250
80.3740,122.9750
80.3626,123.0813
80.3128,123.2146
80.2276,123.3286
80.1136,123.4138
79.9803,123.4636
79.8740,123.4750
78.8740,123.4750
78.7677,123.4636
78.6344,123.4138
78.5204,123.3286
78.4352,123.2146
78.3854,123.0813
78.3740,122.9750
78.3740,121.2250
78.3854,121.1187
78.4352,120.9854
78.5204,120.8714
78.6344,120.7862
78.7677,120.7364
78.8740,120.7250
Z" /> 
<circle cx="81.9140" cy="121.6200" r="0.8000" /> 
<path style="fill:#000000; fill-opacity:1.0000; stroke:none;fill-rule:evenodd;"
d="M 82.4140,120.7250
82.5203,120.7364
82.6536,120.7862
82.7676,120.8714
82.8528,120.9854
82.9026,121.1187
82.9140,121.2250
82.9140,122.9750
82.9026,123.0813
82.8528,123.2146
82.7676,123.3286
82.6536,123.4138
82.5203,123.4636
82.4140,123.4750
81.4140,123.4750
81.3077,123.4636
81.1744,123.4138
81.0604,123.3286
80.9752,123.2146
80.9254,123.0813
80.9140,122.9750
80.9140,121.2250
80.9254,121.1187
80.9752,120.9854
81.0604,120.8714
81.1744,120.7862
81.3077,120.7364
81.4140,120.7250
Z" /> 
<circle cx="84.4540" cy="121.6200" r="0.8000" /> 
<path style="fill:#000000; fill-opacity:1.0000; stroke:none;fill-rule:evenodd;"
d="M 84.9540,120.7250
85.0603,120.7364
85.1936,120.7862
85.3076,120.8714
85.3928,120.9854
85.4426,121.1187
85.4540,121.2250
85.4540,122.9750
85.4426,123.0813
85.3928,123.2146
85.3076,123.3286
85.1936,123.4138
85.0603,123.4636
84.9540,123.4750
83.9540,123.4750
83.8477,123.4636
83.7144,123.4138
83.6004,123.3286
83.5152,123.2146
83.4654,123.0813
83.4540,122.9750
83.4540,121.2250
83.4654,121.1187
83.5152,120.9854
83.6004,120.8714
83.7144,120.7862
83.8477,120.7364
83.9540,120.7250
Z" /> 
<circle cx="86.9940" cy="121.6200" r="0.8000" /> 
<path style="fill:#000000; fill-opacity:1.0000; stroke:none;fill-rule:evenodd;"
d="M 87.4940,120.7250
87.6003,120.7364
87.7336,120.7862
87.8476,120.8714
87.9328,120.9854
87.9826,121.1187
87.9940,121.2250
87.9940,122.9750
87.9826,123.0813
87.9328,123.2146
87.8476,123.3286
87.7336,123.4138
87.6003,123.4636
87.4940,123.4750
86.4940,123.4750
86.3877,123.4636
86.2544,123.4138
86.1404,123.3286
86.0552,123.2146
86.0054,123.0813
85.9940,122.9750
85.9940,121.2250
86.0054,121.1187
86.0552,120.9854
86.1404,120.8714
86.2544,120.7862
86.3877,120.7364
86.4940,120.7250
Z" /> 
<path style="fill:#000000; fill-opacity:1.0000; stroke:none;fill-rule:evenodd;"
d="M 66.7280,113.6580
66.6706,113.6466
66.6219,113.6141
66.5894,113.5654
66.5780,113.5080
66.5780,113.2080
66.5894,113.1506
66.6219,113.1019
66.6706,113.0694
66.7280,113.0580
67.1280,113.0580
67.1854,113.0694
67.2341,113.1019
67.2666,113.1506
67.2780,113.2080
67.2780,113.5080
67.2666,113.5654
67.2341,113.6141
67.1854,113.6466
67.1280,113.6580
Z" /> 
<path style="fill:#000000; fill-opacity:1.0000; stroke:none;fill-rule:evenodd;"
d="M 66.7280,115.0580
66.6706,115.0466
66.6219,115.0141
66.5894,114.9654
66.5780,114.9080
66.5780,114.6080
66.5894,114.5506
66.6219,114.5019
66.6706,114.4694
66.7280,114.4580
67.1280,114.4580
67.1854,114.4694
67.2341,114.5019
67.2666,114.5506
67.2780,114.6080
67.2780,114.9080
67.2666,114.9654
67.2341,115.0141
67.1854,115.0466
67.1280,115.0580
Z" /> 
</g>
<g style="fill:none; 
stroke:#000000; stroke-width:0.2540; stroke-opacity:1; 
stroke-linecap:round; stroke-linejoin:round;">
<path d="M76.2700 85.5707
L76.2700 77.0000
" />
<path d="M74.2940 87.5468
L76.2700 85.5707
" />
<path d="M74.2940 105.9350
L74.2940 87.5468
" />
<path d="M76.8340 90.0550
L78.8100 88.0790
" />
<path d="M76.8340 105.9350
L76.8340 90.0550
" />
<path d="M78.8100 88.0790
L78.8100 77.0000
" />
<path d="M72.3665 102.4890
L69.2140 102.4890
" />
<path d="M69.2140 105.8030
L69.2140 102.4890
" />
<path d="M69.2140 102.4890
L69.2140 84.9750
" />
<path d="M87.7570 102.8700
L78.8670 102.8700
" />
<path d="M88.9000 104.0130
L87.7570 102.8700
" />
<path d="M88.9000 118.1100
L88.9000 104.0130
" />
<path d="M87.8840 119.1260
L88.9000 118.1100
" />
<path d="M82.9420 119.1260
L87.8840 119.1260
" />
<path d="M81.9140 120.1540
L82.9420 119.1260
" />
<path d="M67.5630 109.2320
L67.8170 109.4860
" />
<path d="M65.7585 116.1270
L65.4810 115.8495
" />
<path d="M65.7585 117.1060
L65.7585 116.1270
" />
<path d="M66.2930 109.2320
L67.5630 109.2320
" />
<path d="M65.7850 109.7400
L66.2930 109.2320
" />
<path d="M65.4810 115.8495
L65.4810 114.9880
" />
<path d="M65.4810 114.9880
L65.4810 114.0480
" />
<path d="M64.3110 114.0480
L65.4810 114.0480
" />
<path d="M65.0230 119.1380
L80.8980 119.1380
" />
<path d="M64.0335 117.1060
L64.0335 116.1270
" />
<path d="M69.2140 84.9750
L73.7300 80.4590
" />
<path d="M64.3110 115.8495
L64.3110 114.9880
" />
<path d="M62.9910 117.1060
L61.2130 115.3280
" />
<path d="M64.0335 117.1060
L62.9910 117.1060
" />
<path d="M64.0335 117.1060
L64.0335 118.1485
" />
<path d="M81.9140 120.1540
L81.9140 122.1000
" />
<path d="M61.2130 108.7240
L62.6100 107.3270
" />
<path d="M80.8980 119.1380
L81.9140 120.1540
" />
<path d="M67.6900 107.3270
L69.2140 105.8030
" />
<path d="M64.0335 118.1485
L65.0230 119.1380
" />
<path d="M73.7300 80.4590
L73.7300 77.0000
" />
<path d="M64.0335 116.1270
L64.3110 115.8495
" />
<path d="M62.6100 107.3270
L67.6900 107.3270
" />
<path d="M61.2130 115.3280
L61.2130 108.7240
" />
<path d="M62.8640 113.3580
L62.8640 111.9225
" />
<path d="M63.5640 113.3580
L62.8640 113.3580
" />
<path d="M64.3110 113.1080
L63.8140 113.1080
" />
<path d="M63.8140 113.1080
L63.5640 113.3580
" />
<path d="M64.2375 108.7240
L78.7390 108.7240
" />
<path d="M62.8640 110.0975
L64.2375 108.7240
" />
<path d="M79.3740 108.0890
L79.3740 105.9350
" />
<path d="M78.7390 108.7240
L79.3740 108.0890
" />
<path d="M66.2280 113.3580
L66.9280 113.3580
" />
<path d="M65.9780 113.1080
L66.2280 113.3580
" />
<path d="M65.4810 113.1080
L65.9780 113.1080
" />
<path d="M66.9280 113.3580
L66.9280 111.9225
" />
<path d="M66.9280 110.0975
L80.2865 110.0975
" />
<path d="M80.2865 110.0975
L81.9140 108.4700
" />
<path d="M81.9140 108.4700
L81.9140 105.9350
" />
<path style="fill:#000000; fill-opacity:1.0000; stroke:none;fill-rule:evenodd;"
d="M 87.0037,70.5007
87.2938,70.5183
87.3087,70.5201
87.5908,70.5718
87.6053,70.5754
87.8792,70.6607
87.8932,70.6660
88.1547,70.7837
88.1680,70.7907
88.4135,70.9391
88.4258,70.9476
88.6516,71.1245
88.6628,71.1344
88.8656,71.3372
88.8755,71.3484
89.0524,71.5742
89.0609,71.5865
89.2093,71.8320
89.2163,71.8453
89.3340,72.1068
89.3393,72.1208
89.4246,72.3947
89.4282,72.4092
89.4799,72.6913
89.4817,72.7062
89.4993,72.9963
89.4995,73.0037
89.4995,103.7336
89.4798,103.8006
89.4270,103.8464
89.3579,103.8563
89.2943,103.8273
89.2681,103.7956
89.2421,103.7505
88.0195,102.5279
87.9707,102.4998
87.9220,102.4716
87.8676,102.4571
87.8133,102.4425
87.8133,102.4425
79.6755,102.4425
79.6085,102.4228
79.5627,102.3700
79.5515,102.3185
79.5515,102.2094
79.5411,102.1229
79.5411,102.1229
79.5411,102.1229
79.4869,101.9853
79.4869,101.9853
79.3975,101.8675
79.2797,101.7781
79.2797,101.7781
79.1421,101.7239
79.1421,101.7239
79.1421,101.7239
79.0556,101.7135
79.0556,101.7135
78.4714,101.7135
78.4714,101.7135
78.3849,101.7239
78.3849,101.7239
78.2473,101.7781
78.1295,101.8675
78.0401,101.9853
77.9859,102.1229
77.9859,102.1229
77.9755,102.2094
77.9755,102.7686
77.9859,102.8551
77.9859,102.8551
77.9859,102.8551
78.0373,102.9855
78.0401,102.9927
78.1295,103.1105
78.2473,103.1999
78.2473,103.1999
78.3849,103.2541
78.4385,103.2606
78.4714,103.2645
78.4714,103.2645
78.6712,103.2645
78.7033,103.2687
78.7622,103.2845
78.8107,103.2975
87.5286,103.2975
87.5956,103.3172
87.6162,103.3338
88.4362,104.1538
88.4697,104.2151
88.4725,104.2414
88.4725,104.7029
88.4528,104.7699
88.4000,104.8157
88.3309,104.8256
88.2673,104.7966
88.2315,104.7438
88.2198,104.7105
88.2198,104.7105
88.1238,104.5577
87.9963,104.4302
87.8435,104.3342
87.6733,104.2746
87.6732,104.2746
87.5390,104.2595
87.5390,104.2595
86.4490,104.2595
86.4490,104.2595
86.3147,104.2746
86.3147,104.2746
86.1445,104.3342
85.9917,104.4302
85.8642,104.5577
85.8290,104.6137
85.7767,104.6600
85.7076,104.6707
85.6438,104.6423
85.6190,104.6137
85.5838,104.5577
85.4563,104.4302
85.3035,104.3342
85.1333,104.2746
85.1332,104.2746
84.9990,104.2595
84.9990,104.2595
83.9090,104.2595
83.9090,104.2595
83.7747,104.2746
83.7747,104.2746
83.6045,104.3342
83.4517,104.4302
83.3242,104.5577
83.2890,104.6137
83.2367,104.6600
83.1676,104.6707
83.1038,104.6423
83.0790,104.6137
83.0438,104.5577
82.9163,104.4302
82.7635,104.3342
82.5933,104.2746
82.5932,104.2746
82.4590,104.2595
82.4590,104.2595
81.3690,104.2595
81.3690,104.2595
81.2347,104.2746
81.2347,104.2746
81.0645,104.3342
80.9117,104.4302
80.7842,104.5577
80.7490,104.6137
80.6967,104.6600
80.6276,104.6707
80.5638,104.6423
80.5390,104.6137
80.5038,104.5577
80.3763,104.4302
80.2235,104.3342
80.0533,104.2746
80.0532,104.2746
79.9190,104.2595
79.9190,104.2595
78.8290,104.2595
78.8290,104.2595
78.6947,104.2746
78.6947,104.2746
78.5245,104.3342
78.3717,104.4302
78.2442,104.5577
78.2090,104.6137
78.1567,104.6600
78.0876,104.6707
78.0238,104.6423
77.9990,104.6137
77.9638,104.5577
77.8363,104.4302
77.6835,104.3342
77.5133,104.2746
77.5132,104.2746
77.3790,104.2595
77.3785,104.2595
77.3784,104.2594
77.3755,104.2591
77.3756,104.2584
77.3127,104.2361
77.2700,104.1808
77.2615,104.1357
77.2615,103.3604
77.2812,103.2934
77.3340,103.2476
77.3400,103.2451
77.4547,103.1999
77.5725,103.1105
77.6619,102.9927
77.7161,102.8551
77.7265,102.7686
77.7265,102.2094
77.7161,102.1229
77.6619,101.9853
77.6619,101.9853
77.5725,101.8675
77.4547,101.7781
77.4547,101.7781
77.3400,101.7329
77.2849,101.6900
77.2617,101.6241
77.2615,101.6176
77.2615,100.3937
84.1539,100.3937
84.1539,100.6063
84.1872,100.8162
84.2529,101.0184
84.3494,101.2078
84.4743,101.3798
84.6247,101.5301
84.7966,101.6550
84.7966,101.6550
84.7966,101.6551
84.9860,101.7516
85.1882,101.8172
85.3982,101.8505
85.3982,101.8505
85.6107,101.8505
85.6107,101.8505
85.8207,101.8172
86.0229,101.7516
86.2123,101.6551
86.2639,101.6176
86.3842,101.5301
86.3842,101.5301
86.3842,101.5301
86.5346,101.3798
86.5346,101.3798
86.5346,101.3798
86.6595,101.2078
86.6595,101.2078
86.6595,101.2078
86.7560,101.0184
86.8217,100.8162
86.8550,100.6063
86.8550,100.3937
86.8217,100.1838
86.7560,99.9816
86.6595,99.7922
86.6595,99.7922
86.6595,99.7922
86.5346,99.6202
86.3842,99.4699
86.2123,99.3450
86.0229,99.2484
86.0229,99.2484
86.0229,99.2484
85.8207,99.1828
85.8207,99.1828
85.8207,99.1828
85.6594,99.1572
85.6107,99.1495
85.3982,99.1495
85.3495,99.1572
85.1882,99.1828
84.9860,99.2484
84.7966,99.3450
84.6247,99.4699
84.4743,99.6202
84.3494,99.7922
84.2529,99.9816
84.1872,100.1838
84.1539,100.3937
77.2615,100.3937
77.2615,90.2834
77.2812,90.2164
77.2978,90.1958
77.7807,89.7129
79.1521,88.3415
79.2084,88.2440
79.2375,88.1353
79.2375,88.0227
79.2375,78.0472
79.2572,77.9801
79.3049,77.9388
79.3041,77.9374
79.3095,77.9345
79.3095,77.9345
79.4822,77.8191
79.6291,77.6722
79.7445,77.4995
79.7857,77.4001
79.7883,77.3937
84.1539,77.3937
84.1539,77.6063
84.1849,77.8018
84.1872,77.8162
84.2405,77.9801
84.2529,78.0184
84.3494,78.2078
84.4743,78.3798
84.6247,78.5301
84.7966,78.6550
84.7966,78.6550
84.7966,78.6551
84.9860,78.7516
85.1882,78.8172
85.3982,78.8505
85.3982,78.8505
85.6107,78.8505
85.6107,78.8505
85.8207,78.8172
86.0229,78.7516
86.2123,78.6551
86.2342,78.6391
86.3842,78.5301
86.3842,78.5301
86.3842,78.5301
86.5346,78.3798
86.5346,78.3798
86.5346,78.3798
86.6595,78.2078
86.6595,78.2078
86.6595,78.2078
86.7560,78.0184
86.8217,77.8162
86.8550,77.6063
86.8550,77.3937
86.8217,77.1838
86.7560,76.9816
86.6595,76.7922
86.6595,76.7922
86.6595,76.7922
86.5346,76.6202
86.3842,76.4699
86.2123,76.3450
86.0229,76.2484
86.0229,76.2484
86.0229,76.2484
85.8207,76.1828
85.8207,76.1828
85.8207,76.1828
85.6594,76.1572
85.6107,76.1495
85.3982,76.1495
85.3495,76.1572
85.1882,76.1828
84.9860,76.2484
84.7966,76.3450
84.6247,76.4699
84.4743,76.6202
84.3494,76.7922
84.2529,76.9816
84.1872,77.1838
84.1539,77.3937
79.7883,77.3937
79.8100,77.3414
79.8100,77.3414
79.8240,77.3076
79.8645,77.1039
79.8645,76.8961
79.8645,76.8961
79.8645,76.8961
79.8456,76.8010
79.8240,76.6924
79.7941,76.6202
79.7445,76.5005
79.7445,76.5005
79.6291,76.3278
79.6291,76.3278
79.4822,76.1809
79.4822,76.1809
79.3095,76.0655
79.3095,76.0655
79.1176,75.9860
79.1176,75.9860
78.9139,75.9455
78.9139,75.9455
78.7061,75.9455
78.7061,75.9455
78.5024,75.9860
78.5024,75.9860
78.3105,76.0655
78.3105,76.0655
78.1378,76.1809
78.1378,76.1809
77.9909,76.3278
77.9909,76.3278
77.8755,76.5005
77.8755,76.5005
77.7960,76.6924
77.7960,76.6924
77.7555,76.8961
77.7555,77.1039
77.7960,77.3076
77.7960,77.3076
77.8755,77.4995
77.8755,77.4995
77.9909,77.6722
77.9909,77.6722
78.1378,77.8191
78.1378,77.8191
78.3105,77.9345
78.3105,77.9345
78.3159,77.9374
78.3147,77.9396
78.3603,77.9764
78.3824,78.0427
78.3825,78.0472
78.3825,87.8506
78.3628,87.9176
78.3462,87.9382
76.4919,89.7925
76.4919,89.7925
76.4356,89.8900
76.4065,89.9987
76.4065,101.7286
76.3868,101.7956
76.3574,101.8274
76.3045,101.8675
76.2151,101.9853
76.1609,102.1229
76.1609,102.1229
76.1505,102.2094
76.1505,102.7686
76.1609,102.8551
76.1609,102.8551
76.1609,102.8551
76.2123,102.9855
76.2151,102.9927
76.3045,103.1105
76.3045,103.1105
76.3574,103.1506
76.3989,103.2068
76.4065,103.2494
76.4065,104.1357
76.3868,104.2027
76.3340,104.2485
76.2925,104.2587
76.2925,104.2591
76.2896,104.2594
76.2895,104.2595
76.2890,104.2595
76.1547,104.2746
76.1547,104.2746
75.9845,104.3342
75.8317,104.4302
75.7042,104.5577
75.6690,104.6137
75.6167,104.6600
75.5476,104.6707
75.4838,104.6423
75.4590,104.6137
75.4238,104.5577
75.2963,104.4302
75.1435,104.3342
74.9733,104.2746
74.9732,104.2746
74.8390,104.2595
74.8385,104.2595
74.8384,104.2594
74.8355,104.2591
74.8356,104.2584
74.7727,104.2361
74.7300,104.1808
74.7215,104.1357
74.7215,103.2510
74.7412,103.1839
74.7706,103.1522
74.8255,103.1105
74.9149,102.9927
74.9691,102.8551
74.9795,102.7686
74.9795,102.2094
74.9691,102.1229
74.9149,101.9853
74.8255,101.8675
74.8255,101.8675
74.8255,101.8675
74.7706,101.8258
74.7291,101.7697
74.7215,101.7270
74.7215,87.7752
74.7412,87.7081
74.7578,87.6875
75.2407,87.2047
76.6121,85.8332
76.6684,85.7358
76.6975,85.6270
76.6975,85.5145
76.6975,78.0472
76.7172,77.9801
76.7649,77.9388
76.7641,77.9374
76.7695,77.9345
76.7695,77.9345
76.9422,77.8191
77.0891,77.6722
77.2045,77.4995
77.2840,77.3076
77.3245,77.1039
77.3245,76.8961
77.3245,76.8961
77.3245,76.8961
77.3056,76.8010
77.2840,76.6924
77.2541,76.6202
77.2045,76.5005
77.2045,76.5005
77.0891,76.3278
77.0891,76.3278
76.9422,76.1809
76.9422,76.1809
76.7695,76.0655
76.7695,76.0655
76.5776,75.9860
76.5776,75.9860
76.3739,75.9455
76.3739,75.9455
76.1661,75.9455
76.1661,75.9455
75.9624,75.9860
75.9624,75.9860
75.7705,76.0655
75.7705,76.0655
75.5978,76.1809
75.5978,76.1809
75.4509,76.3278
75.4509,76.3278
75.3355,76.5005
75.3355,76.5005
75.2560,76.6924
75.2560,76.6924
75.2155,76.8961
75.2155,77.1039
75.2560,77.3076
75.2560,77.3076
75.3355,77.4995
75.3355,77.4995
75.4509,77.6722
75.4509,77.6722
75.5978,77.8191
75.5978,77.8191
75.7705,77.9345
75.7705,77.9345
75.7759,77.9374
75.7747,77.9396
75.8203,77.9764
75.8424,78.0427
75.8425,78.0472
75.8425,85.3423
75.8228,85.4094
75.8062,85.4300
73.9519,87.2843
73.9519,87.2843
73.8956,87.3817
73.8665,87.4905
73.8665,101.6184
73.8468,101.6854
73.7940,101.7312
73.7880,101.7337
73.6753,101.7781
73.6753,101.7781
73.5575,101.8675
73.4681,101.9853
73.4139,102.1229
73.4139,102.1229
73.4035,102.2094
73.4035,102.7686
73.4139,102.8551
73.4139,102.8551
73.4139,102.8551
73.4653,102.9855
73.4681,102.9927
73.5575,103.1105
73.6753,103.1999
73.6753,103.1999
73.7880,103.2443
73.8431,103.2872
73.8663,103.3531
73.8665,103.3596
73.8665,104.1357
73.8468,104.2027
73.7940,104.2485
73.7525,104.2587
73.7525,104.2591
73.7496,104.2594
73.7495,104.2595
73.7490,104.2595
73.6148,104.2746
73.6147,104.2746
73.4445,104.3342
73.2917,104.4302
73.1642,104.5577
73.1290,104.6137
73.0767,104.6600
73.0076,104.6707
72.9438,104.6423
72.9190,104.6137
72.8838,104.5577
72.7563,104.4302
72.6035,104.3342
72.4333,104.2746
72.4332,104.2746
72.2990,104.2595
72.2990,104.2595
71.2090,104.2595
71.2090,104.2595
71.0747,104.2746
71.0747,104.2746
70.9045,104.3342
70.7517,104.4302
70.6242,104.5577
70.5282,104.7105
70.4686,104.8807
70.4686,104.8807
70.4535,105.0150
70.4535,106.8550
70.4686,106.9892
70.4686,106.9893
70.5282,107.1595
70.6242,107.3123
70.7517,107.4398
70.9045,107.5358
71.0747,107.5954
71.0747,107.5954
71.1652,107.6056
71.2090,107.6105
71.2090,107.6105
71.2090,107.6105
72.2990,107.6105
72.2990,107.6105
72.3661,107.6029
72.4332,107.5954
72.4333,107.5954
72.4333,107.5954
72.6035,107.5358
72.7563,107.4398
72.8838,107.3123
72.9190,107.2563
72.9713,107.2100
73.0404,107.1993
73.1042,107.2277
73.1290,107.2563
73.1642,107.3123
73.2917,107.4398
73.4445,107.5358
73.6147,107.5954
73.6148,107.5954
73.7052,107.6056
73.7490,107.6105
73.7490,107.6105
73.7490,107.6105
74.8390,107.6105
74.8390,107.6105
74.9061,107.6029
74.9732,107.5954
74.9733,107.5954
74.9733,107.5954
75.1435,107.5358
75.2963,107.4398
75.4238,107.3123
75.4590,107.2563
75.5113,107.2100
75.5804,107.1993
75.6442,107.2277
75.6690,107.2563
75.7042,107.3123
75.8317,107.4398
75.9845,107.5358
76.1547,107.5954
76.1547,107.5954
76.2452,107.6056
76.2890,107.6105
76.2890,107.6105
76.2890,107.6105
77.3790,107.6105
77.3790,107.6105
77.4461,107.6029
77.5132,107.5954
77.5133,107.5954
77.5133,107.5954
77.6835,107.5358
77.8363,107.4398
77.9638,107.3123
77.9990,107.2563
78.0513,107.2100
78.1204,107.1993
78.1842,107.2277
78.2090,107.2563
78.2442,107.3123
78.3717,107.4398
78.5245,107.5358
78.6947,107.5954
78.6947,107.5954
78.8290,107.6105
78.8290,107.6105
78.8290,107.6105
78.8291,107.6105
78.8294,107.6105
78.8295,107.6106
78.8325,107.6109
78.8324,107.6116
78.8347,107.6124
78.8401,107.6116
78.8672,107.6240
78.8953,107.6339
78.8987,107.6383
78.9037,107.6406
78.9198,107.6656
78.9380,107.6892
78.9393,107.6960
78.9415,107.6994
78.9465,107.7343
78.9465,107.8606
78.9268,107.9276
78.9102,107.9482
78.5982,108.2602
78.5369,108.2937
78.5106,108.2965
64.1812,108.2965
64.0725,108.3256
63.9750,108.3819
63.9750,108.3819
63.0837,109.2732
63.0224,109.3067
62.9961,109.3095
62.5844,109.3095
62.4979,109.3199
62.4979,109.3199
62.3603,109.3741
62.2425,109.4635
62.1531,109.5813
62.0989,109.7189
62.0989,109.7189
62.0885,109.8054
62.0885,110.3896
62.0989,110.4761
62.0989,110.4761
62.1531,110.6137
62.2425,110.7315
62.3603,110.8209
62.3603,110.8209
62.4979,110.8751
62.5556,110.8820
62.5844,110.8855
62.5844,110.8855
63.1436,110.8855
63.1652,110.8829
63.2301,110.8751
63.3677,110.8209
63.4855,110.7315
63.5749,110.6137
63.6291,110.4761
63.6395,110.3896
63.6395,109.9779
63.6592,109.9109
63.6758,109.8903
64.3783,109.1878
64.4396,109.1543
64.4659,109.1515
66.3492,109.1515
66.4162,109.1712
66.4620,109.2240
66.4719,109.2931
66.4429,109.3567
66.4241,109.3743
66.3065,109.4635
66.2171,109.5813
66.1629,109.7189
66.1629,109.7189
66.1525,109.8054
66.1525,110.3896
66.1629,110.4761
66.1629,110.4761
66.2171,110.6137
66.3065,110.7315
66.4243,110.8209
66.4243,110.8209
66.5619,110.8751
66.6196,110.8820
66.6484,110.8855
66.6484,110.8855
67.2076,110.8855
67.2292,110.8829
67.2941,110.8751
67.4317,110.8209
67.5495,110.7315
67.6389,110.6137
67.6429,110.6035
67.6858,110.5484
67.7517,110.5252
67.7582,110.5250
80.3428,110.5250
80.3428,110.5250
80.4515,110.4959
80.5490,110.4396
82.2561,108.7325
82.3124,108.6350
82.3415,108.5263
82.3415,108.4137
82.3415,107.7343
82.3612,107.6673
82.4140,107.6215
82.4555,107.6113
82.4555,107.6109
82.4584,107.6106
82.4586,107.6105
82.4589,107.6105
82.4590,107.6105
82.4590,107.6105
82.4590,107.6105
82.5932,107.5954
82.5933,107.5954
82.5933,107.5954
82.7635,107.5358
82.9163,107.4398
83.0438,107.3123
83.0790,107.2563
83.1313,107.2100
83.2004,107.1993
83.2642,107.2277
83.2890,107.2563
83.3242,107.3123
83.4517,107.4398
83.6045,107.5358
83.7747,107.5954
83.7747,107.5954
83.8652,107.6056
83.9090,107.6105
83.9090,107.6105
83.9090,107.6105
84.9990,107.6105
84.9990,107.6105
85.0661,107.6029
85.1332,107.5954
85.1333,107.5954
85.1333,107.5954
85.3035,107.5358
85.4563,107.4398
85.5838,107.3123
85.6190,107.2563
85.6713,107.2100
85.7404,107.1993
85.8042,107.2277
85.8290,107.2563
85.8642,107.3123
85.9917,107.4398
86.1445,107.5358
86.3147,107.5954
86.3147,107.5954
86.4052,107.6056
86.4490,107.6105
86.4490,107.6105
86.4490,107.6105
87.5390,107.6105
87.5390,107.6105
87.6061,107.6029
87.6732,107.5954
87.6733,107.5954
87.6733,107.5954
87.8435,107.5358
87.9963,107.4398
88.1238,107.3123
88.2198,107.1595
88.2315,107.1262
88.2722,107.0694
88.3371,107.0436
88.4057,107.0571
88.4561,107.1055
88.4725,107.1671
88.4725,117.8816
88.4528,117.9486
88.4362,117.9692
87.7432,118.6622
87.6819,118.6957
87.6556,118.6985
82.8857,118.6985
82.7770,118.7276
82.6795,118.7839
82.6795,118.7839
82.0017,119.4617
81.9404,119.4952
81.8707,119.4902
81.8263,119.4617
81.1605,118.7959
81.1605,118.7959
81.1118,118.7678
81.0630,118.7396
81.0086,118.7251
80.9543,118.7105
80.9543,118.7105
65.2514,118.7105
65.1844,118.6908
65.1638,118.6742
64.5230,118.0335
64.4896,117.9721
64.4945,117.9025
64.5364,117.8465
64.5442,117.8411
64.5542,117.8348
64.5997,117.8169
64.6887,117.7494
64.6930,117.7466
64.7218,117.7383
64.7499,117.7276
64.7551,117.7287
64.7601,117.7273
64.7889,117.7359
64.8182,117.7421
64.8223,117.7459
64.8271,117.7473
64.8409,117.7634
64.8650,117.7862
64.8761,117.8040
64.9980,117.9259
64.9980,117.9259
65.1447,118.0164
65.1447,118.0165
65.3083,118.0707
65.4094,118.0810
66.0085,118.0810
66.1076,118.0810
66.1077,118.0810
66.2087,118.0707
66.3723,118.0165
66.3723,118.0164
66.5190,117.9259
66.5190,117.9259
66.6409,117.8040
66.6409,117.8040
66.7314,117.6573
66.7315,117.6573
66.7857,117.4937
66.7960,117.3927
66.7960,117.3926
66.7960,117.3560
66.0085,117.3560
66.0085,118.0810
65.4094,118.0810
65.5085,118.0810
65.5085,116.8560
66.0085,116.8560
66.7960,116.8560
66.7960,116.8194
66.7960,116.8193
66.7857,116.7183
66.7315,116.5547
66.7314,116.5547
66.6409,116.4080
66.6409,116.4080
66.5190,116.2861
66.5190,116.2861
66.3723,116.1956
66.3723,116.1955
66.2087,116.1413
66.1077,116.1310
66.0085,116.1310
66.0085,116.8560
65.5085,116.8560
65.5085,116.1310
65.4094,116.1310
65.4093,116.1310
65.3083,116.1413
65.1447,116.1955
65.1447,116.1956
64.9980,116.2861
64.9980,116.2861
64.8761,116.4080
64.8760,116.4080
64.8650,116.4258
64.8546,116.4353
64.8479,116.4477
64.8291,116.4582
64.8131,116.4725
64.7992,116.4748
64.7869,116.4817
64.7654,116.4803
64.7441,116.4838
64.7298,116.4781
64.7171,116.4773
64.6880,116.4614
64.6860,116.4606
64.6853,116.4601
64.5997,116.3951
64.5940,116.3929
64.5824,116.3844
64.5657,116.3624
64.5464,116.3426
64.5448,116.3350
64.5401,116.3288
64.5379,116.3012
64.5324,116.2741
64.5352,116.2669
64.5345,116.2592
64.5476,116.2348
64.5576,116.2090
64.5674,116.1978
64.5675,116.1976
64.5677,116.1975
64.5682,116.1968
64.6531,116.1120
64.7094,116.0145
64.7385,115.9058
64.7385,115.7953
64.7582,115.7282
64.8110,115.6825
64.8801,115.6726
64.9380,115.6969
64.9862,115.7339
65.1287,115.7929
65.1287,115.7929
65.2310,115.8064
65.2310,115.8064
65.2310,115.1120
65.2507,115.0450
65.3035,114.9992
65.3550,114.9880
65.4810,114.9880
65.4810,114.8620
65.5007,114.7950
65.5535,114.7492
65.6050,114.7380
65.7850,114.7380
65.7850,115.2380
65.7310,115.2380
65.7310,115.8064
65.8333,115.7929
65.8333,115.7929
65.9758,115.7339
66.0981,115.6401
66.1919,115.5178
66.1943,115.5119
66.2382,115.4575
66.3045,115.4355
66.3720,115.4526
66.4678,115.5093
66.4678,115.5093
66.6255,115.5551
66.6255,115.5551
66.6624,115.5580
66.6624,115.5580
66.6780,115.5580
67.1780,115.5580
67.1936,115.5580
67.1936,115.5580
67.2305,115.5551
67.2305,115.5551
67.3882,115.5093
67.3882,115.5093
67.5296,115.4257
67.5296,115.4257
67.6457,115.3096
67.6457,115.3096
67.7293,115.1682
67.7751,115.0105
67.7753,115.0080
67.7753,115.0080
67.1780,115.0080
67.1780,115.5580
66.6780,115.5580
66.6780,115.0080
66.5470,115.0080
66.5470,114.5080
67.7753,114.5080
67.7753,114.5080
67.7751,114.5055
67.7293,114.3478
67.6457,114.2064
67.6457,114.2064
67.5296,114.0903
67.5296,114.0903
67.4509,114.0438
67.4033,113.9928
67.3908,113.9240
67.4174,113.8594
67.4404,113.8373
67.4501,113.8301
67.5308,113.7209
67.5550,113.6517
67.5756,113.5927
67.5756,113.5927
67.5785,113.5623
67.5785,113.1537
67.5756,113.1233
67.5756,113.1233
67.5308,112.9951
67.5308,112.9951
67.4694,112.9120
67.4501,112.8858
67.4501,112.8858
67.4501,112.8858
67.4119,112.8576
67.3696,112.8020
67.3642,112.7323
67.3972,112.6708
67.4247,112.6497
67.4317,112.6459
67.5495,112.5565
67.6389,112.4387
67.6389,112.4387
67.6931,112.3011
67.7035,112.2146
67.7035,111.6304
67.6931,111.5439
67.6389,111.4063
67.6389,111.4063
67.5495,111.2885
67.4317,111.1991
67.4317,111.1991
67.2941,111.1449
67.2941,111.1449
67.2941,111.1449
67.2076,111.1345
67.2076,111.1345
66.6484,111.1345
66.6484,111.1345
66.5619,111.1449
66.5619,111.1449
66.4243,111.1991
66.3065,111.2885
66.2171,111.4063
66.1629,111.5439
66.1629,111.5439
66.1525,111.6304
66.1525,112.2146
66.1629,112.3011
66.1629,112.3011
66.2171,112.4387
66.2753,112.5153
66.2858,112.5430
66.2987,112.5697
66.2981,112.5753
66.3001,112.5806
66.2940,112.6096
66.2904,112.6390
66.2868,112.6434
66.2856,112.6490
66.2648,112.6701
66.2460,112.6929
66.2405,112.6946
66.2365,112.6987
66.2076,112.7052
66.1794,112.7142
66.1715,112.7132
66.1684,112.7140
66.1444,112.7100
66.1430,112.7096
66.1430,112.7096
66.0640,112.6885
66.0063,112.6533
66.0062,112.6534
66.0060,112.6531
66.0043,112.6521
66.0016,112.6487
65.9079,112.5550
65.7922,112.4984
65.7922,112.4984
65.7922,112.4984
65.7171,112.4875
65.7171,112.4875
65.2449,112.4875
65.1698,112.4984
65.0541,112.5550
64.9837,112.6254
64.9224,112.6589
64.8527,112.6539
64.8083,112.6254
64.7379,112.5550
64.6222,112.4984
64.6222,112.4984
64.6222,112.4984
64.5471,112.4875
64.5471,112.4875
64.0749,112.4875
63.9998,112.4984
63.8841,112.5550
63.7858,112.6534
63.7835,112.6512
63.7772,112.6561
63.7605,112.6746
63.7456,112.6809
63.7419,112.6839
63.7280,112.6885
63.6538,112.7083
63.6476,112.7100
63.5778,112.7083
63.5199,112.6692
63.4924,112.6049
63.5040,112.5360
63.5167,112.5153
63.5749,112.4387
63.6291,112.3011
63.6395,112.2146
63.6395,111.6304
63.6291,111.5439
63.5749,111.4063
63.5749,111.4063
63.4855,111.2885
63.3677,111.1991
63.3677,111.1991
63.2301,111.1449
63.2301,111.1449
63.2301,111.1449
63.1436,111.1345
63.1436,111.1345
62.5844,111.1345
62.5844,111.1345
62.4979,111.1449
62.4979,111.1449
62.3603,111.1991
62.2425,111.2885
62.1531,111.4063
62.0989,111.5439
62.0989,111.5439
62.0885,111.6304
62.0885,112.2146
62.0989,112.3011
62.0989,112.3011
62.1531,112.4387
62.2425,112.5565
62.3603,112.6459
62.3603,112.6459
62.3603,112.6459
62.3603,112.6459
62.3673,112.6497
62.4160,112.6998
62.4300,112.7682
62.4048,112.8334
62.3801,112.8576
62.3419,112.8858
62.3418,112.8858
62.2612,112.9951
62.2612,112.9951
62.2164,113.1233
62.2164,113.1233
62.2135,113.1537
62.2135,113.5623
62.2164,113.5927
62.2164,113.5927
62.2600,113.7176
62.2612,113.7209
62.3418,113.8301
62.3516,113.8373
62.3938,113.8930
62.3993,113.9626
62.3662,114.0242
62.3411,114.0438
62.2624,114.0903
62.2624,114.0903
62.1463,114.2064
62.1463,114.2064
62.0627,114.3478
62.0169,114.5055
62.0167,114.5080
62.0167,114.5080
62.7400,114.5080
62.8070,114.5277
62.8528,114.5805
62.8640,114.6320
62.8640,114.7580
62.9900,114.7580
63.0570,114.7777
63.1028,114.8305
63.1140,114.8820
63.1140,115.5580
63.1296,115.5580
63.1296,115.5580
63.1665,115.5551
63.1665,115.5551
63.3242,115.5093
63.3242,115.5093
63.4656,115.4257
63.4656,115.4257
63.5547,115.3365
63.6161,115.3030
63.6858,115.3080
63.7417,115.3499
63.7441,115.3532
63.7496,115.3611
63.7930,115.4499
63.8549,115.5118
63.8611,115.5207
63.8689,115.5439
63.8807,115.5654
63.8828,115.5851
63.8834,115.5869
63.8831,115.5881
63.8835,115.5917
63.8835,115.6211
63.8638,115.6881
63.8472,115.7087
63.7710,115.7849
63.6914,115.8645
63.6351,115.9620
63.6060,116.0707
63.6060,116.2561
63.5863,116.3231
63.5335,116.3689
63.5275,116.3714
63.4673,116.3951
63.4673,116.3951
63.3495,116.4845
63.2735,116.5847
63.2173,116.6262
63.1476,116.6308
63.0870,116.5975
61.6768,115.1872
61.6433,115.1259
61.6405,115.0996
61.6405,115.0080
62.0167,115.0080
62.0169,115.0105
62.0627,115.1682
62.1412,115.3009
62.2711,115.4308
62.4038,115.5093
62.4038,115.5093
62.5615,115.5551
62.5615,115.5551
62.5983,115.5580
62.5984,115.5580
62.6140,115.5580
62.6140,115.0080
62.0167,115.0080
62.0167,115.0080
61.6405,115.0080
61.6405,108.9524
61.6602,108.8854
61.6768,108.8648
62.7508,107.7908
62.8121,107.7573
62.8384,107.7545
67.7463,107.7545
67.7463,107.7545
67.8550,107.7254
67.9525,107.6691
69.5561,106.0655
69.5767,106.0298
69.6124,105.9680
69.6152,105.9576
69.6152,105.9576
69.6415,105.8593
69.6415,103.0405
69.6612,102.9735
69.7140,102.9277
69.7655,102.9165
71.5287,102.9165
71.5957,102.9362
71.6385,102.9855
71.6390,102.9853
71.6403,102.9876
71.6415,102.9890
71.6428,102.9921
71.6431,102.9927
71.7325,103.1105
71.8503,103.1999
71.8503,103.1999
71.9879,103.2541
72.0415,103.2606
72.0744,103.2645
72.0744,103.2645
72.6586,103.2645
72.6802,103.2619
72.7451,103.2541
72.8827,103.1999
73.0005,103.1105
73.0899,102.9927
73.1441,102.8551
73.1545,102.7686
73.1545,102.2094
73.1441,102.1229
73.0899,101.9853
73.0899,101.9853
73.0005,101.8675
72.8827,101.7781
72.8827,101.7781
72.7451,101.7239
72.7451,101.7239
72.7451,101.7239
72.6586,101.7135
72.6586,101.7135
72.0744,101.7135
72.0744,101.7135
71.9879,101.7239
71.9879,101.7239
71.8503,101.7781
71.7325,101.8675
71.6431,101.9853
71.6390,101.9927
71.6372,101.9918
71.6012,102.0381
71.5352,102.0613
71.5287,102.0615
69.7655,102.0615
69.6985,102.0418
69.6527,101.9890
69.6415,101.9375
69.6415,85.2034
69.6612,85.1364
69.6778,85.1158
70.1607,84.6329
74.0721,80.7215
74.1284,80.6240
74.1575,80.5153
74.1575,78.0472
74.1772,77.9801
74.2249,77.9388
74.2241,77.9374
74.2295,77.9345
74.2295,77.9345
74.4022,77.8191
74.5491,77.6722
74.6645,77.4995
74.7440,77.3076
74.7845,77.1039
74.7845,76.8961
74.7845,76.8961
74.7845,76.8961
74.7656,76.8010
74.7440,76.6924
74.7141,76.6202
74.6645,76.5005
74.6645,76.5005
74.5491,76.3278
74.5491,76.3278
74.4022,76.1809
74.4022,76.1809
74.2295,76.0655
74.2295,76.0655
74.0376,75.9860
74.0376,75.9860
73.8339,75.9455
73.8339,75.9455
73.6261,75.9455
73.6261,75.9455
73.4224,75.9860
73.4224,75.9860
73.2305,76.0655
73.2305,76.0655
73.0578,76.1809
73.0578,76.1809
72.9109,76.3278
72.9109,76.3278
72.7955,76.5005
72.7955,76.5005
72.7160,76.6924
72.7160,76.6924
72.6896,76.8252
72.6572,76.8871
72.5965,76.9217
72.5267,76.9179
72.4701,76.8770
72.4445,76.8120
72.4440,76.8010
72.4440,76.1982
72.4440,76.1982
72.4376,76.1386
72.4376,76.1386
72.3874,76.0039
72.3873,76.0039
72.3012,75.8888
72.3012,75.8888
72.1861,75.8026
72.1861,75.8026
72.0514,75.7524
72.0514,75.7524
71.9918,75.7460
71.4400,75.7460
71.4400,76.5670
71.3830,76.5341
71.2558,76.5000
71.1242,76.5000
70.9970,76.5341
70.9400,76.5670
70.9400,75.7460
70.3882,75.7460
70.3286,75.7524
70.3286,75.7524
70.1939,75.8026
70.1939,75.8026
70.0788,75.8888
70.0788,75.8888
69.9926,76.0039
69.9926,76.0039
69.9424,76.1386
69.9424,76.1386
69.9360,76.1982
69.9360,76.7500
70.7570,76.7500
70.7241,76.8070
70.6900,76.9342
70.6900,77.0658
70.7241,77.1930
70.7570,77.2500
69.9360,77.2500
69.9360,77.8018
69.9424,77.8614
69.9424,77.8614
69.9926,77.9961
69.9926,77.9961
70.0788,78.1112
70.0788,78.1112
70.1939,78.1974
70.1939,78.1974
70.3286,78.2476
70.3286,78.2476
70.3882,78.2540
70.3882,78.2540
70.9400,78.2540
70.9400,77.4330
70.9970,77.4659
71.1242,77.5000
71.2558,77.5000
71.3830,77.4659
71.4400,77.4330
71.4400,78.2540
71.9918,78.2540
71.9918,78.2540
72.0514,78.2476
72.0514,78.2476
72.1861,78.1974
72.1861,78.1974
72.3012,78.1112
72.3012,78.1112
72.3873,77.9961
72.3874,77.9961
72.4376,77.8614
72.4376,77.8614
72.4440,77.8018
72.4440,77.8018
72.4440,77.1990
72.4637,77.1320
72.5165,77.0862
72.5856,77.0763
72.6492,77.1053
72.6870,77.1641
72.6896,77.1748
72.7160,77.3076
72.7160,77.3076
72.7955,77.4995
72.7955,77.4995
72.9109,77.6722
72.9109,77.6722
73.0578,77.8191
73.0578,77.8191
73.2305,77.9345
73.2305,77.9345
73.2359,77.9374
73.2347,77.9396
73.2803,77.9764
73.3024,78.0427
73.3025,78.0472
73.3025,80.2306
73.2828,80.2976
73.2662,80.3182
68.9515,84.6329
68.8719,84.7125
68.8719,84.7125
68.8156,84.8100
68.7865,84.9187
68.7865,105.5746
68.7668,105.6416
68.7502,105.6622
67.5492,106.8632
67.4879,106.8967
67.4616,106.8995
62.5537,106.8995
62.4450,106.9286
62.3475,106.9849
62.3475,106.9849
60.9505,108.3819
60.8709,108.4615
60.8709,108.4615
60.8146,108.5590
60.7855,108.6677
60.7855,115.3843
60.8146,115.4930
60.8240,115.5093
60.8709,115.5905
62.6489,117.3685
62.7285,117.4481
62.8260,117.5044
62.9347,117.5335
63.1457,117.5335
63.2127,117.5532
63.2555,117.6025
63.2560,117.6023
63.2573,117.6046
63.2585,117.6060
63.2598,117.6091
63.2601,117.6097
63.3495,117.7275
63.4673,117.8169
63.4673,117.8169
63.5275,117.8406
63.5826,117.8835
63.6058,117.9494
63.6060,117.9559
63.6060,118.2048
63.6351,118.3135
63.6432,118.3274
63.6914,118.4110
64.7605,119.4801
64.8580,119.5364
64.9667,119.5655
64.9667,119.5655
80.6696,119.5655
80.7366,119.5852
80.7572,119.6018
81.3765,120.2211
81.4100,120.2824
81.4050,120.3521
81.3631,120.4080
81.3027,120.4320
81.2347,120.4396
81.2347,120.4396
81.0645,120.4992
80.9117,120.5952
80.7842,120.7227
80.7490,120.7787
80.6967,120.8250
80.6276,120.8357
80.5638,120.8073
80.5390,120.7787
80.5038,120.7227
80.3763,120.5952
80.2235,120.4992
80.0533,120.4396
80.0532,120.4396
79.9190,120.4245
79.9190,120.4245
78.8290,120.4245
78.8290,120.4245
78.6947,120.4396
78.6947,120.4396
78.5245,120.4992
78.3717,120.5952
78.2442,120.7227
78.2090,120.7787
78.1567,120.8250
78.0876,120.8357
78.0238,120.8073
77.9990,120.7787
77.9638,120.7227
77.8363,120.5952
77.6835,120.4992
77.5133,120.4396
77.5132,120.4396
77.3790,120.4245
77.3790,120.4245
76.2890,120.4245
76.2890,120.4245
76.1547,120.4396
76.1547,120.4396
75.9845,120.4992
75.8317,120.5952
75.7042,120.7227
75.6690,120.7787
75.6167,120.8250
75.5476,120.8357
75.4838,120.8073
75.4590,120.7787
75.4238,120.7227
75.2963,120.5952
75.1435,120.4992
74.9733,120.4396
74.9732,120.4396
74.8390,120.4245
74.8390,120.4245
73.7490,120.4245
73.7490,120.4245
73.6148,120.4396
73.6147,120.4396
73.4445,120.4992
73.2917,120.5952
73.1642,120.7227
73.1290,120.7787
73.0767,120.8250
73.0076,120.8357
72.9438,120.8073
72.9190,120.7787
72.8838,120.7227
72.7563,120.5952
72.6035,120.4992
72.4333,120.4396
72.4332,120.4396
72.2990,120.4245
72.2990,120.4245
71.2090,120.4245
71.2090,120.4245
71.0747,120.4396
71.0747,120.4396
70.9045,120.4992
70.7517,120.5952
70.6242,120.7227
70.5282,120.8755
70.4686,121.0457
70.4686,121.0457
70.4535,121.1800
70.4535,123.0200
70.4686,123.1542
70.4686,123.1543
70.5282,123.3245
70.6242,123.4773
70.7517,123.6048
70.9045,123.7008
71.0747,123.7604
71.0747,123.7604
71.1652,123.7706
71.2090,123.7755
71.2090,123.7755
71.2090,123.7755
72.2990,123.7755
72.2990,123.7755
72.3661,123.7679
72.4332,123.7604
72.4333,123.7604
72.4333,123.7604
72.6035,123.7008
72.7563,123.6048
72.8838,123.4773
72.9190,123.4213
72.9713,123.3750
73.0404,123.3643
73.1042,123.3927
73.1290,123.4213
73.1642,123.4773
73.2917,123.6048
73.4445,123.7008
73.6147,123.7604
73.6148,123.7604
73.7052,123.7706
73.7490,123.7755
73.7490,123.7755
73.7490,123.7755
74.8390,123.7755
74.8390,123.7755
74.9061,123.7679
74.9732,123.7604
74.9733,123.7604
74.9733,123.7604
75.1435,123.7008
75.2963,123.6048
75.4238,123.4773
75.4590,123.4213
75.5113,123.3750
75.5804,123.3643
75.6442,123.3927
75.6690,123.4213
75.7042,123.4773
75.8317,123.6048
75.9845,123.7008
76.1547,123.7604
76.1547,123.7604
76.2452,123.7706
76.2890,123.7755
76.2890,123.7755
76.2890,123.7755
77.3790,123.7755
77.3790,123.7755
77.4461,123.7679
77.5132,123.7604
77.5133,123.7604
77.5133,123.7604
77.6835,123.7008
77.8363,123.6048
77.9638,123.4773
77.9990,123.4213
78.0513,123.3750
78.1204,123.3643
78.1842,123.3927
78.2090,123.4213
78.2442,123.4773
78.3717,123.6048
78.5245,123.7008
78.6947,123.7604
78.6947,123.7604
78.7852,123.7706
78.8290,123.7755
78.8290,123.7755
78.8290,123.7755
79.9190,123.7755
79.9190,123.7755
79.9861,123.7679
80.0532,123.7604
80.0533,123.7604
80.0533,123.7604
80.2235,123.7008
80.3763,123.6048
80.5038,123.4773
80.5390,123.4213
80.5913,123.3750
80.6604,123.3643
80.7242,123.3927
80.7490,123.4213
80.7842,123.4773
80.9117,123.6048
81.0645,123.7008
81.2347,123.7604
81.2347,123.7604
81.3252,123.7706
81.3690,123.7755
81.3690,123.7755
81.3690,123.7755
82.4590,123.7755
82.4590,123.7755
82.5261,123.7679
82.5932,123.7604
82.5933,123.7604
82.5933,123.7604
82.7635,123.7008
82.9163,123.6048
82.9630,123.5581
83.0243,123.5246
83.0940,123.5296
83.1468,123.5674
83.2432,123.6858
83.4009,123.8143
83.5811,123.9084
83.7767,123.9644
83.7767,123.9644
83.8960,123.9750
83.8960,123.9750
84.2040,123.9750
84.2040,122.0530
84.2610,122.0859
84.3882,122.1200
84.5198,122.1200
84.6470,122.0859
84.7040,122.0530
84.7040,123.9750
85.0120,123.9750
85.0120,123.9750
85.1313,123.9644
85.1313,123.9644
85.3269,123.9084
85.5071,123.8143
85.6648,123.6858
85.7612,123.5674
85.8189,123.5279
85.8887,123.5258
85.9450,123.5581
85.9917,123.6048
86.1445,123.7008
86.3147,123.7604
86.3147,123.7604
86.4052,123.7706
86.4490,123.7755
86.4490,123.7755
86.4490,123.7755
87.5390,123.7755
87.5390,123.7755
87.6061,123.7679
87.6732,123.7604
87.6733,123.7604
87.6733,123.7604
87.8435,123.7008
87.9963,123.6048
88.1238,123.4773
88.2198,123.3245
88.2794,123.1543
88.2945,123.0200
88.2945,121.1800
88.2896,121.1362
88.2794,121.0457
88.2794,121.0457
88.2198,120.8755
88.1590,120.7787
88.1238,120.7227
87.9963,120.5952
87.8675,120.5142
87.8435,120.4992
87.6733,120.4396
87.6732,120.4396
87.5390,120.4245
87.5390,120.4245
86.4490,120.4245
86.4490,120.4245
86.3147,120.4396
86.3147,120.4396
86.1445,120.4992
85.9917,120.5952
85.9450,120.6419
85.8837,120.6754
85.8140,120.6704
85.7612,120.6326
85.6648,120.5142
85.5071,120.3857
85.3269,120.2916
85.1313,120.2356
85.1313,120.2356
85.0120,120.2250
84.7040,120.2250
84.7040,121.1870
84.6470,121.1541
84.5198,121.1200
84.3882,121.1200
84.2610,121.1541
84.2040,121.1870
84.2040,120.2250
83.8960,120.2250
83.7767,120.2356
83.7767,120.2356
83.5811,120.2916
83.4009,120.3857
83.2432,120.5142
83.1468,120.6326
83.0891,120.6721
83.0193,120.6742
82.9630,120.6419
82.9163,120.5952
82.7635,120.4992
82.5933,120.4396
82.5253,120.4320
82.4609,120.4049
82.4213,120.3473
82.4192,120.2775
82.4515,120.2211
83.0828,119.5898
83.1441,119.5563
83.1704,119.5535
87.9403,119.5535
87.9403,119.5535
88.0490,119.5244
88.1465,119.4681
89.2421,118.3725
89.2681,118.3274
89.3187,118.2792
89.3873,118.2660
89.4522,118.2919
89.4927,118.3489
89.4995,118.3894
89.4995,126.9962
89.4993,127.0037
89.4817,127.2938
89.4799,127.3087
89.4282,127.5908
89.4246,127.6053
89.3393,127.8792
89.3340,127.8932
89.2163,128.1547
89.2093,128.1680
89.0609,128.4135
89.0524,128.4258
88.8755,128.6516
88.8656,128.6628
88.6628,128.8656
88.6516,128.8755
88.4258,129.0524
88.4135,129.0609
88.1680,129.2093
88.1547,129.2163
87.8932,129.3340
87.8792,129.3393
87.6053,129.4246
87.5908,129.4282
87.3087,129.4799
87.2938,129.4817
87.0037,129.4993
86.9962,129.4995
63.0038,129.4995
62.9963,129.4993
62.7062,129.4817
62.6913,129.4799
62.4092,129.4282
62.3947,129.4246
62.1208,129.3393
62.1068,129.3340
61.9541,129.2653
61.8453,129.2163
61.8320,129.2093
61.5865,129.0609
61.5742,129.0524
61.3484,128.8755
61.3372,128.8656
61.1344,128.6628
61.1245,128.6516
60.9476,128.4258
60.9391,128.4135
60.7907,128.1680
60.7837,128.1547
60.6660,127.8932
60.6607,127.8792
60.5754,127.6053
60.5718,127.5908
60.5201,127.3087
60.5183,127.2938
60.5007,127.0037
60.5005,126.9962
60.5005,126.8937
61.6495,126.8937
61.6495,127.1063
61.6828,127.3162
61.7484,127.5184
61.8450,127.7078
61.9699,127.8798
62.1202,128.0301
62.2922,128.1550
62.2922,128.1550
62.2922,128.1551
62.4816,128.2516
62.6838,128.3172
62.8937,128.3505
62.8937,128.3505
63.1063,128.3505
63.1063,128.3505
63.3162,128.3172
63.5184,128.2516
63.7078,128.1551
63.7298,128.1391
63.8798,128.0301
63.8798,128.0301
63.8798,128.0301
64.0301,127.8798
64.0301,127.8798
64.0301,127.8798
64.1550,127.7078
64.1550,127.7078
64.1551,127.7078
64.2516,127.5184
64.3172,127.3162
64.3505,127.1063
64.3505,126.8937
85.6495,126.8937
85.6495,127.1063
85.6828,127.3162
85.7484,127.5184
85.8450,127.7078
85.9699,127.8798
86.1202,128.0301
86.2922,128.1550
86.2922,128.1550
86.2922,128.1551
86.4816,128.2516
86.6838,128.3172
86.8937,128.3505
86.8937,128.3505
87.1063,128.3505
87.1063,128.3505
87.3162,128.3172
87.5184,128.2516
87.7078,128.1551
87.7298,128.1391
87.8798,128.0301
87.8798,128.0301
87.8798,128.0301
88.0301,127.8798
88.0301,127.8798
88.0301,127.8798
88.1550,127.7078
88.1550,127.7078
88.1551,127.7078
88.2516,127.5184
88.3172,127.3162
88.3505,127.1063
88.3505,126.8937
88.3172,126.6838
88.2516,126.4816
88.1551,126.2922
88.1550,126.2922
88.1550,126.2922
88.0301,126.1202
87.8798,125.9699
87.7078,125.8450
87.5184,125.7484
87.5184,125.7484
87.5184,125.7484
87.3162,125.6828
87.3162,125.6828
87.3162,125.6828
87.1550,125.6572
87.1063,125.6495
86.8937,125.6495
86.8450,125.6572
86.6838,125.6828
86.4816,125.7484
86.2922,125.8450
86.1202,125.9699
85.9699,126.1202
85.8450,126.2922
85.7484,126.4816
85.6828,126.6838
85.6495,126.8937
64.3505,126.8937
64.3172,126.6838
64.2516,126.4816
64.1551,126.2922
64.1550,126.2922
64.1550,126.2922
64.0301,126.1202
63.8798,125.9699
63.7078,125.8450
63.5184,125.7484
63.5184,125.7484
63.5184,125.7484
63.3162,125.6828
63.3162,125.6828
63.3162,125.6828
63.1550,125.6572
63.1063,125.6495
62.8937,125.6495
62.8450,125.6572
62.6838,125.6828
62.4816,125.7484
62.2922,125.8450
62.1202,125.9699
61.9699,126.1202
61.8450,126.2922
61.7484,126.4816
61.6828,126.6838
61.6495,126.8937
60.5005,126.8937
60.5005,100.3937
63.1495,100.3937
63.1495,100.6063
63.1828,100.8162
63.2484,101.0184
63.3450,101.2078
63.4699,101.3798
63.6202,101.5301
63.7922,101.6550
63.7922,101.6550
63.7922,101.6551
63.9816,101.7516
64.1838,101.8172
64.3937,101.8505
64.3937,101.8505
64.6063,101.8505
64.6063,101.8505
64.8162,101.8172
65.0184,101.7516
65.2078,101.6551
65.2594,101.6176
65.3798,101.5301
65.3798,101.5301
65.3798,101.5301
65.5301,101.3798
65.5301,101.3798
65.5301,101.3798
65.6550,101.2078
65.6550,101.2078
65.6551,101.2078
65.7516,101.0184
65.8172,100.8162
65.8505,100.6063
65.8505,100.3937
65.8172,100.1838
65.7516,99.9816
65.6551,99.7922
65.6550,99.7922
65.6550,99.7922
65.5301,99.6202
65.3798,99.4699
65.2078,99.3450
65.0184,99.2484
65.0184,99.2484
65.0184,99.2484
64.8162,99.1828
64.8162,99.1828
64.8162,99.1828
64.6550,99.1572
64.6063,99.1495
64.3937,99.1495
64.3450,99.1572
64.1838,99.1828
63.9816,99.2484
63.7922,99.3450
63.6202,99.4699
63.4699,99.6202
63.3450,99.7922
63.2484,99.9816
63.1828,100.1838
63.1495,100.3937
60.5005,100.3937
60.5005,77.3937
63.1495,77.3937
63.1495,77.6063
63.1805,77.8018
63.1828,77.8162
63.2360,77.9801
63.2484,78.0184
63.3450,78.2078
63.4699,78.3798
63.6202,78.5301
63.7922,78.6550
63.7922,78.6550
63.7922,78.6551
63.9816,78.7516
64.1838,78.8172
64.3937,78.8505
64.3937,78.8505
64.6063,78.8505
64.6063,78.8505
64.8162,78.8172
65.0184,78.7516
65.2078,78.6551
65.2298,78.6391
65.3798,78.5301
65.3798,78.5301
65.3798,78.5301
65.5301,78.3798
65.5301,78.3798
65.5301,78.3798
65.6550,78.2078
65.6550,78.2078
65.6551,78.2078
65.7516,78.0184
65.8172,77.8162
65.8505,77.6063
65.8505,77.3937
65.8172,77.1838
65.7516,76.9816
65.6551,76.7922
65.6550,76.7922
65.6550,76.7922
65.5301,76.6202
65.3798,76.4699
65.2078,76.3450
65.2078,76.3449
65.2078,76.3449
65.0184,76.2484
64.8162,76.1828
64.8162,76.1828
64.8162,76.1828
64.6550,76.1572
64.6063,76.1495
64.3937,76.1495
64.3450,76.1572
64.1838,76.1828
63.9816,76.2484
63.7922,76.3450
63.6202,76.4699
63.4699,76.6202
63.3450,76.7922
63.2484,76.9816
63.1828,77.1838
63.1495,77.3937
60.5005,77.3937
60.5005,73.0037
60.5007,72.9963
60.5069,72.8937
61.6495,72.8937
61.6495,73.1063
61.6828,73.3162
61.7484,73.5184
61.8450,73.7078
61.9699,73.8798
62.1202,74.0301
62.2922,74.1550
62.2922,74.1550
62.2922,74.1551
62.4816,74.2516
62.6838,74.3172
62.8937,74.3505
62.8937,74.3505
63.1063,74.3505
63.1063,74.3505
63.3162,74.3172
63.5184,74.2516
63.7078,74.1551
63.7298,74.1391
63.8798,74.0301
63.8798,74.0301
63.8798,74.0301
64.0301,73.8798
64.0301,73.8798
64.0301,73.8798
64.1550,73.7078
64.1550,73.7078
64.1551,73.7078
64.2516,73.5184
64.3172,73.3162
64.3505,73.1063
64.3505,72.8937
85.6495,72.8937
85.6495,73.1063
85.6828,73.3162
85.7484,73.5184
85.8450,73.7078
85.9699,73.8798
86.1202,74.0301
86.2922,74.1550
86.2922,74.1550
86.2922,74.1551
86.4816,74.2516
86.6838,74.3172
86.8937,74.3505
86.8937,74.3505
87.1063,74.3505
87.1063,74.3505
87.3162,74.3172
87.5184,74.2516
87.7078,74.1551
87.7298,74.1391
87.8798,74.0301
87.8798,74.0301
87.8798,74.0301
88.0301,73.8798
88.0301,73.8798
88.0301,73.8798
88.1550,73.7078
88.1550,73.7078
88.1551,73.7078
88.2516,73.5184
88.3172,73.3162
88.3505,73.1063
88.3505,72.8937
88.3172,72.6838
88.2516,72.4816
88.1551,72.2922
88.1550,72.2922
88.1550,72.2922
88.0301,72.1202
87.8798,71.9699
87.7078,71.8450
87.5184,71.7484
87.5184,71.7484
87.5184,71.7484
87.3162,71.6828
87.3162,71.6828
87.3162,71.6828
87.1550,71.6572
87.1063,71.6495
86.8937,71.6495
86.8450,71.6572
86.6838,71.6828
86.4816,71.7484
86.2922,71.8450
86.1202,71.9699
85.9699,72.1202
85.8450,72.2922
85.7484,72.4816
85.6828,72.6838
85.6495,72.8937
64.3505,72.8937
64.3172,72.6838
64.2516,72.4816
64.1551,72.2922
64.1550,72.2922
64.1550,72.2922
64.0301,72.1202
63.8798,71.9699
63.7078,71.8450
63.5184,71.7484
63.5184,71.7484
63.5184,71.7484
63.3162,71.6828
63.3162,71.6828
63.3162,71.6828
63.1550,71.6572
63.1063,71.6495
62.8937,71.6495
62.8450,71.6572
62.6838,71.6828
62.4816,71.7484
62.2922,71.8450
62.1202,71.9699
61.9699,72.1202
61.8450,72.2922
61.7484,72.4816
61.6828,72.6838
61.6495,72.8937
60.5069,72.8937
60.5077,72.8814
60.5183,72.7062
60.5201,72.6913
60.5718,72.4092
60.5754,72.3947
60.6073,72.2922
60.6607,72.1208
60.6660,72.1068
60.7837,71.8453
60.7907,71.8320
60.8809,71.6828
60.9391,71.5865
60.9476,71.5742
61.1245,71.3484
61.1344,71.3372
61.3372,71.1344
61.3484,71.1245
61.5742,70.9476
61.5865,70.9391
61.8320,70.7907
61.8453,70.7837
62.1068,70.6660
62.1208,70.6607
62.3947,70.5754
62.4092,70.5718
62.6913,70.5201
62.7062,70.5183
62.9963,70.5007
63.0038,70.5005
63.0659,70.5005
86.9341,70.5005
86.9962,70.5005
Z" /> 
<path style="fill:#000000; fill-opacity:1.0000; stroke:none;fill-rule:evenodd;"
d="M 65.4240,113.8177
65.4698,113.8705
65.4810,113.9220
65.4810,114.1740
65.4613,114.2410
65.4085,114.2868
65.3570,114.2980
64.4350,114.2980
64.3680,114.2783
64.3222,114.2255
64.3110,114.1740
64.3110,113.9220
64.3307,113.8550
64.3835,113.8092
64.4350,113.7980
65.3570,113.7980
Z" /> 
<path style="fill:#000000; fill-opacity:1.0000; stroke:none;fill-rule:evenodd;"
d="M 80.6616,107.1999
80.6629,107.1997
80.6934,107.2140
80.7242,107.2277
80.7254,107.2290
80.7262,107.2293
80.7490,107.2563
80.7842,107.3123
80.9117,107.4398
81.0645,107.5358
81.2347,107.5954
81.2347,107.5954
81.3690,107.6105
81.3690,107.6105
81.3690,107.6105
81.3691,107.6105
81.3694,107.6105
81.3695,107.6106
81.3725,107.6109
81.3724,107.6116
81.4353,107.6339
81.4780,107.6892
81.4865,107.7343
81.4865,108.2416
81.4668,108.3086
81.4502,108.3292
80.1457,109.6337
80.0844,109.6672
80.0581,109.6700
67.7582,109.6700
67.6912,109.6503
67.6454,109.5975
67.6429,109.5915
67.6389,109.5813
67.6389,109.5813
67.5495,109.4635
67.4319,109.3743
67.3904,109.3181
67.3858,109.2484
67.4197,109.1873
67.4812,109.1542
67.5068,109.1515
78.7953,109.1515
78.7953,109.1515
78.9040,109.1224
79.0015,109.0661
79.7161,108.3515
79.7724,108.2540
79.8015,108.1453
79.8015,108.0327
79.8015,107.7343
79.8212,107.6673
79.8740,107.6215
79.9155,107.6113
79.9155,107.6109
79.9184,107.6106
79.9186,107.6105
79.9189,107.6105
79.9190,107.6105
79.9190,107.6105
79.9190,107.6105
80.0532,107.5954
80.0533,107.5954
80.0533,107.5954
80.2235,107.5358
80.3763,107.4398
80.5038,107.3123
80.5390,107.2563
80.5400,107.2554
80.5404,107.2541
80.5661,107.2323
80.5913,107.2100
80.5926,107.2098
80.5936,107.2089
80.6271,107.2045
80.6604,107.1993
Z" /> 
</g> 
</svg>
