<?xml version="1.0" standalone="no"?>
 <!DOCTYPE svg PUBLIC "-//W3C//DTD SVG 1.1//EN" 
 "http://www.w3.org/Graphics/SVG/1.1/DTD/svg11.dtd"> 
<svg
  xmlns:svg="http://www.w3.org/2000/svg"
  xmlns="http://www.w3.org/2000/svg"
  xmlns:xlink="http://www.w3.org/1999/xlink"
  xmlns:inkscape="http://www.inkscape.org/namespaces/inkscape"
  version="1.1"
  width="148.0058mm" height="210.0072mm" viewBox="0.0000 0.0000 148.0058 210.0072">
<title>SVG Image created as rsdb_rev1-Edge_Cuts.svg date 2026-06-17T19:42:13 </title>
  <desc>Image generated by PCBNEW </desc>
<g style="fill:#000000; fill-opacity:1.0000;stroke:#000000; stroke-opacity:1.0000;
stroke-linecap:round; stroke-linejoin:round;"
 transform="translate(0 0) scale(1 1)">
<path style="fill:none; 
stroke:#000000; stroke-width:0.2000; stroke-opacity:1; 
stroke-linecap:round; stroke-linejoin:round;fill:none"
d="M 60.0000,73.0000
60.0005,72.9215
60.0087,72.7646
60.0252,72.6084
60.0497,72.4532
60.0824,72.2995
60.1230,72.1478
60.1716,71.9984
60.2279,71.8518
60.2918,71.7082
60.3631,71.5683
60.4416,71.4322
60.5272,71.3005
60.6195,71.1734
60.7184,71.0513
60.8235,70.9346
60.9346,70.8235
61.0513,70.7184
61.1734,70.6195
61.3005,70.5272
61.4322,70.4416
61.5683,70.3631
61.7082,70.2918
61.8518,70.2279
61.9984,70.1716
62.1478,70.1230
62.2995,70.0824
62.4532,70.0497
62.6084,70.0252
62.7646,70.0087
62.9215,70.0005
63.0000,70.0000
87.0000,70.0000
87.0785,70.0005
87.2354,70.0087
87.3916,70.0252
87.5468,70.0497
87.7005,70.0824
87.8522,70.1230
88.0016,70.1716
88.1482,70.2279
88.2918,70.2918
88.4317,70.3631
88.5678,70.4416
88.6995,70.5272
88.8266,70.6195
88.9487,70.7184
89.0654,70.8235
89.1765,70.9346
89.2816,71.0513
89.3805,71.1734
89.4728,71.3005
89.5584,71.4322
89.6369,71.5683
89.7082,71.7082
89.7721,71.8518
89.8284,71.9984
89.8770,72.1478
89.9176,72.2995
89.9503,72.4532
89.9748,72.6084
89.9913,72.7646
89.9995,72.9215
90.0000,73.0000
90.0000,127.0000
89.9995,127.0785
89.9913,127.2354
89.9748,127.3916
89.9503,127.5468
89.9176,127.7005
89.8770,127.8522
89.8284,128.0016
89.7721,128.1482
89.7082,128.2918
89.6369,128.4317
89.5584,128.5678
89.4728,128.6995
89.3805,128.8266
89.2816,128.9487
89.1765,129.0654
89.0654,129.1765
88.9487,129.2816
88.8266,129.3805
88.6995,129.4728
88.5678,129.5584
88.4317,129.6369
88.2918,129.7082
88.1482,129.7721
88.0016,129.8284
87.8522,129.8770
87.7005,129.9176
87.5468,129.9503
87.3916,129.9748
87.2354,129.9913
87.0785,129.9995
87.0000,130.0000
63.0000,130.0000
62.9215,129.9995
62.7646,129.9913
62.6084,129.9748
62.4532,129.9503
62.2995,129.9176
62.1478,129.8770
61.9984,129.8284
61.8518,129.7721
61.7082,129.7082
61.5683,129.6369
61.4322,129.5584
61.3005,129.4728
61.1734,129.3805
61.0513,129.2816
60.9346,129.1765
60.8235,129.0654
60.7184,128.9487
60.6195,128.8266
60.5272,128.6995
60.4416,128.5678
60.3631,128.4317
60.2918,128.2918
60.2279,128.1482
60.1716,128.0016
60.1230,127.8522
60.0824,127.7005
60.0497,127.5468
60.0252,127.3916
60.0087,127.2354
60.0005,127.0785
60.0000,127.0000
Z" /> 
</g> 
</svg>
